<?xml version="1.0" encoding="UTF-8" standalone="no"?>
<svg
   version="1.1"
   id="Layer_1"
   x="0px"
   y="0px"
   viewBox="0 0 1833.0864 470.71407"
   enable-background="new 0 0 6000 3523.505"
   xml:space="preserve"
   sodipodi:docname="industrial-5056457.svg"
   width="1833.0864"
   height="470.71405"
   inkscape:version="1.2.2 (b0a8486541, 2022-12-01)"
   xmlns:inkscape="http://www.inkscape.org/namespaces/inkscape"
   xmlns:sodipodi="http://sodipodi.sourceforge.net/DTD/sodipodi-0.dtd"
   xmlns="http://www.w3.org/2000/svg"
   xmlns:svg="http://www.w3.org/2000/svg"><defs
   id="defs210" /><sodipodi:namedview
   id="namedview208"
   pagecolor="#ffffff"
   bordercolor="#666666"
   borderopacity="1.0"
   inkscape:showpageshadow="2"
   inkscape:pageopacity="0.0"
   inkscape:pagecheckerboard="0"
   inkscape:deskcolor="#d1d1d1"
   showgrid="false"
   inkscape:zoom="0.28912099"
   inkscape:cx="1423.2796"
   inkscape:cy="601.82416"
   inkscape:window-width="1872"
   inkscape:window-height="1032"
   inkscape:window-x="48"
   inkscape:window-y="48"
   inkscape:window-maximized="1"
   inkscape:current-layer="Layer_1" />
<path
   id="path205"
   d="m 96.656074,0.1769533 c -0.974999,0.3739996 -1.46875,2.0049403 -1.46875,4.8359375 0,4.2099958 -0.05982,4.2830631 -4.007812,4.9140625 -5.378995,0.8599987 -5.11751,2.9259557 0.646484,5.1269537 l 4.654297,1.777343 c -1.396999,25.993974 -1.292969,25.692306 -1.292969,34.279297 -19.51498,-0.375999 -36.060547,-0.932702 -36.060547,0.404297 0,0.747999 4.755401,1.099609 14.900391,1.099609 16.776983,0 21.160156,0.566331 21.160156,2.736328 0,1.259999 -1.495618,1.377297 -9.849609,0.779297 -12.015988,-0.858999 -15.646766,1.025429 -15.384766,7.982422 0.348,9.284991 2.711443,8.451157 23.732422,9.035157 l 0.587891,14.523437 H 76.699043 c -23.336977,0 -23.575945,2.001953 -0.04297,2.001953 h 17.529298 v 8.013672 c -18.077982,0 -45.076172,-0.223046 -45.076172,1.001953 0,1.350998 35.044182,1.001953 45.076172,1.001953 v 5.007815 H 68.642402 c -33.868966,0 -34.358966,2.0039 0,2.0039 28.529972,0 25.541016,-0.38296 25.541016,4.33204 l -38.648438,-0.6543 c -25.434974,-0.431 -39.29597,-0.30667 -40.542968,0.36133 -3.418997,1.83 -4.206717,4.62203 -2.386719,8.45703 l 1.640625,3.45898 c 14.638985,0.495 19.03253,0.65628 2.560547,0.86328 -21.0179791,0.263 -32.72311,2.48236 29.798828,1.56836 l 46.576172,-0.68164 c 0,9.07199 0.263436,19.6956 -1.226563,21.1836 -2.039998,2.04199 0.957359,2.56546 0.69336,7.68945 -0.195,3.789 -0.409751,20.69969 -0.46875,24.80469 l -3.75586,-0.57227 C 61.799679,173.4589 62.695761,171.49701 61.710762,178.925 l -0.677735,5.10938 c -35.153965,-6.597 -31.52897,-6.73386 -33.167969,8.57812 -26.6199727,5.108 -27.8378899,5.18235 -27.8378899,7.40234 0,1.015 0.1642345,1.84375 0.3652343,1.84376 0.1989998,0 5.9179912,-1.13168 12.7089846,-2.51368 13.848986,-2.82099 14.42103,-2.66213 13.457031,3.75586 -0.669,4.465 -0.700849,4.49555 -5.839844,5.56055 -17.1779825,3.558 -20.6914059,4.43325 -20.6914059,5.15625 0,0.443 1.9158148,0.43442 4.2578124,-0.0176 20.8629785,-4.02599 22.0449515,-5.00529 20.7519525,0.7207 -1.055999,4.681 -0.649212,4.48086 -10.158203,5.00586 -4.587995,0.253 -9.8057044,0.68499 -11.5957026,0.95899 l -3.2558593,0.49609 V 470.71406 H 1821.6111 c 0.1996,-9.57949 0.4442,-12.88595 0.7442,-58.50195 h 2.1289 c 16.718,0 6.8799,-10.94578 -10.8301,-12.05078 -7.227,-0.452 -16.0694,-1.29119 -19.6504,-1.86719 -20.652,-3.31599 -48.2374,-5.94055 -51.7344,-9.43554 -2.076,-2.078 6.7035,1.35831 24.6875,3.82031 16.991,2.329 18.4392,3.22876 17.8262,1.38476 -0.253,-0.761 -1.1009,-1.46736 -1.8809,-1.56836 -8.8609,-1.147 -8.9316,-1.18886 -8.9316,-5.25586 v -3.8457 l 5.5078,-0.6875 c 7.097,-0.887 7.097,-3.55078 0,-3.55078 -7.636,0 -8.4489,-8.45108 -0.9219,-9.58008 4.073,-0.611 6.6082,-2.59692 5.1602,-4.04492 -0.284,-0.284 -4.8818,-1.12609 -10.2188,-1.87109 -11.6289,-1.624 -10.6718,-0.80107 -11.0898,-9.53907 -0.291,-6.08499 -0.053,-7.38273 1.6055,-8.80273 1.07,-0.916 1.9433,-2.18722 1.9433,-2.82422 0,-0.637 0.865,-1.77525 1.92,-2.53125 3.9749,-2.845 -0.6333,-15.89844 -5.6133,-15.89844 -4.412,0 -6.1574,1.70868 -6.9024,6.76367 -0.386,2.615 -1.1635,5.05497 -1.7285,5.41797 -0.917,0.591 -0.018,2.03157 5.3652,8.60157 0.564,0.687 0.9467,4.68195 0.8497,8.87695 l -0.1778,7.62891 c -14.204,-1.606 -13.7461,-0.72895 -13.7461,-6.96094 0,-5.486 2.6591,-12.05138 5.2071,-12.85938 1.658,-0.526 1.6845,-0.77433 0.3105,-2.73632 -0.83,-1.186 -1.524,-3.29551 -1.541,-4.6875 -0.084,-6.638 -8.6627,-9.88209 -12.2227,-4.6211 -1.123,1.659 -0.249,8.68271 -1.914,10.3457 -0.859,0.861 -0.1092,2.11163 3.0058,5.01563 4.314,4.024 6.4145,14.33733 2.8985,14.23633 -22.526,-0.648 -34.2833,-5.02237 -34.4473,-12.81836 -0.241,-11.44099 -2.9655,-20.96305 -6.1855,-21.62305 -2.314,-0.474 -55.313,-8.17063 -91.336,-13.26562 -12.496,-1.767 -14.0215,-2.40691 -14.0215,-5.87891 0,-1.895 0.6949,-2.4107 4.0059,-2.9707 2.357,-0.398 4.0078,-1.23335 4.0078,-2.02735 0,-3.11599 -2.0208,-6.24442 -4.6738,-7.23242 -10.757,-4.00799 -14.3594,-5.60781 -14.3594,-6.38281 0,-0.487 -1.3386,-0.88477 -2.9766,-0.88477 -3.553,0 -23.3082,-6.47897 -27.5742,-9.04297 -1.653,-0.99399 -4.8077,-2.09521 -7.0117,-2.44921 -6.627,-1.062 -17.9122,-3.74704 -19.7832,-4.70704 -2.715,-1.39299 -2.5631,-12.84961 0.1699,-12.84961 4.554,0 6.3761,-4.66717 3.2031,-8.20117 -1.398,-1.557 -39.5515,-9.98176 -41.6875,-10.50976 -9.4699,-2.345 -11.4596,-1.74233 -16.5976,-4.36133 -2.417,-1.234 -5.8662,-1.96875 -9.2422,-1.96875 -6.275,0 -30.6191,-3.65683 -49.4141,-7.42383 -4.724,-0.948 -30.4199,-3.88871 -30.4199,-7.5957 0,-0.376 -2.5908,-0.61992 -5.7597,-0.54492 -5.151,0.122 -13.947,-0.51461 -27.295,-1.97461 -10.394,-1.138 -37.2799,-5.47269 -53.0879,-7.05469 -12.0999,-1.208 -11.1376,-4.80111 -15.5976,-2.41211 -3.744,2.002 -11.5636,-0.12597 -27.9746,-1.54297 -6.32,-0.546 -30.2121,-3.62188 -48.5821,-5.04687 -4.26,-0.33 -19.6528,-2.09994 -25.0468,-2.71094 l -8.7598,4.2168 c -11.339,5.45599 -14.4567,10.01336 -6.8867,10.06835 3.289,0.023 4.7205,1.39651 4.2305,4.0625 -0.246,1.338 -0.4805,3.05827 -0.5215,3.82227 -0.083,1.548 -14.1789,0.91211 -21.2989,-0.96289 -5.111,-1.345 -31.1543,-1.37866 -54.9023,-2.84766 -24.452,-1.51199 -37.8433,-1.77789 -53.8633,-3.08789 -12.748,-1.041 -13.0588,-0.97555 -19.2578,3.89844 -2.479,1.949 -4.6929,3.67022 -4.9199,3.82422 -1.403,0.955 2.1723,5.29883 4.3613,5.29883 3.881,0 4.4786,2.575 4.3926,18.95898 -0.094,18.06098 1.1278,16.83016 -14.5742,14.66016 -19.76699,-2.731 -25.69798,-3.82764 -28.66798,-5.30664 -4.283,-2.131 -3.22161,-2.14022 9.85938,-0.0742 19.472,3.075 31.4682,3.37753 20.5332,0.51953 -3.216,-0.841 -2.986,-11.7082 0.25,-11.7832 l 2.2539,-0.0527 c -4.847,-3.37999 -4.5078,-2.41802 -4.5078,-12.91601 h 4.082 c 3.331,0 4.0181,-0.31933 3.7441,-1.73633 -0.352,-1.827 -3.0414,-2.34894 -26.8554,-5.21094 -16.50999,-1.984 -22.39757,-4.65941 -35.56055,-5.44141 -11.31199,-0.67199 -59.85315,-8.14637 -72.11914,-9.98437 l -73.1211,-1.16602 -0.16797,-10.01757 c -3.04099,-0.545 -8.37898,-1.4393 -11.45898,-2.4043 -2.755,-0.863 -32.36449,0.5453 -37.39648,1.7793 -2.861,0.701 -2.93946,0.88381 -2.68946,6.25781 0.412,8.89899 -29.88868,16.05818 -41.76367,9.86719 -2.97,-1.547 -5.87583,-2.03818 -12.29883,-2.07618 -11.27699,-0.069 -49.55287,-6.05647 -64.50586,-7.98046 -25.21097,-3.247 -45.42124,-7.09305 -51.74023,-5.87305 -8.71099,1.684 -9.20819,1.48887 -8.49219,-3.32813 0.348,-2.34099 0.92811,-7.11347 1.28711,-10.60546 0.475,-4.603 1.16191,-6.66496 2.50391,-7.50196 1.017,-0.636 1.84961,-1.73441 1.84961,-2.4414 0,-0.707 1.12886,-1.71624 2.50586,-2.24024 2.53499,-0.964 3.33695,-3.37186 1.50195,-4.50586 -0.551,-0.341 -1.00195,-2.59477 -1.00195,-5.00976 0,-9.35999 -11.51158,-10.66039 -13.51758,-1.52539 l -0.65821,3.00195 -2.51562,-2.99219 c -4.762,-5.65999 -12.35547,-3.07491 -12.35547,4.20508 0,1.509 -0.90567,3.58909 -2.01367,4.62109 -2.005,1.868 -2.00606,1.88507 -0.0391,3.66407 4.03999,3.65699 5.93367,8.85644 5.01367,13.77343 -0.465,2.492 -0.95303,6.85913 -1.08203,9.70313 -0.265,5.80099 -0.89073,6.58855 -5.88672,7.43555 -1.928,0.32699 -8.68745,1.52992 -15.02344,2.66992 -21.23598,3.82699 -61.09642,10.63349 -90.65039,16.14648 -19.17198,3.576 -20.53516,3.6125 -20.53516,0.5625 0,-2.753 2.41873,-4.66992 5.88672,-4.66992 2.133,0 5.47747,-2.32403 -1.01953,-1.83203 l -4.36523,0.33008 v -10.92188 l 4.43359,-1.08008 c 4.586,-1.117 6.38042,-3.08751 3.73242,-4.10351 -0.833,-0.321 -7.51843,0.56856 -14.85742,1.97656 -29.17697,5.59799 -35.46468,6.36842 -40.63867,4.98242 l -2.25391,-0.60351 c 0,-60.96794 1.62931,-51.49656 -8.55468,-77.39453 -2.724,-6.925 -4.8553,-14.07796 -5.0293,-16.87696 -0.392,-6.27399 1.89682,-5.38921 -23.66016,-9.1582 -48.45195,-7.144995 -43.24257,-6.799937 -58.22656,-3.83594 -15.38698,3.042997 -15.67158,3.196052 -15.01758,8.12305 0.378,2.845 -1.2143,8.77492 -6.7793,25.2539 -8.04199,23.81398 -7.38401,19.2433 -7.79101,54.19727 l -0.14649,12.62891 -6.07812,0.63476 c -16.31598,1.705 -26.1571,8.09294 -15.53711,10.08594 3.81,0.715 5.07997,3.8018 2.04297,4.9668 -10.36299,3.97699 -47.03575,7.33807 -48.59375,4.45507 -1.516,-2.80899 0.12641,-7.7092 2.69141,-8.0332 3.19799,-0.404 3.12452,-2.222 -0.10547,-2.625 -3.529,-0.442 -3.96994,-10.20117 -0.46094,-10.20117 1.142,0 2.75213,-0.67595 3.57812,-1.50195 1.582,-1.582 1.44152,-1.66639 -3.14648,-1.90039 -1.741,-0.088 -2.04183,-0.91045 -2.29883,-6.27344 l -0.29687,-6.16992 3.10351,-0.68164 c 3.677,-0.808 3.46906,-2.87032 -0.33594,-3.32032 -4.88899,-0.579 -3.96691,-8.89442 1.08008,-9.73242 5.553,-0.924 6.25977,-1.25541 6.25977,-2.94141 0,-2.35199 -39.74747,4.40903 -85.48242,14.54102 -11.541988,2.556 -10.863249,3.63639 -10.656249,-16.93359 0.204,-20.39698 -0.679735,-28.22754 -1.302735,-35.89453 l 3.896484,-0.64258 c 6.50299,-1.075 46.46484,-0.78506 46.46484,0.33594 0,1.74399 36.27905,1.30229 38.62305,-0.47071 1.31,-0.992 4.47403,-1.48095 9.70703,-1.50195 4.48599,-0.018 7.76367,-0.4542 7.76367,-1.0332 0,-0.579 -3.17172,-1.00196 -7.51172,-1.00196 -7.11899,0 -7.51334,-0.11791 -7.52734,-2.2539 -0.046,-6.637 -9.31085,-6.45472 -90.134764,-6.76172 v -5.00782 h 30.550774 c 40.51096,0 41.10096,-2.00195 0,-2.00195 H 98.195136 v -5.007812 c 25.224974,0 60.099604,0.221046 60.099604,-1.001953 0,-1.334998 -44.16262,-1.001953 -60.099604,-1.001953 V 89.67506 h 14.023434 c 18.77498,0 18.69311,-2.003906 -0.0469,-2.003906 H 98.10334 c 0.361999,-8.291992 0.227797,-5.221493 0.591796,-13.521484 16.273984,-0.582 15.662104,-0.02507 18.412104,-4.039063 4.117,-6.007994 1.5899,-12.488281 -4.87109,-12.488281 -7.03099,0 -13.03906,-1.216627 -13.03906,-2.640625 0,-1.090999 2.92445,-1.365234 14.52343,-1.365234 9.01499,0 14.52344,-0.379954 14.52344,-1.001954 0,-1.338998 -23.12288,-1.001953 -29.04687,-1.001953 v -5.259765 c 0.011,-14.538986 1.35588,-30.800782 2.54688,-30.800782 1.18299,0 2.45703,-2.120845 2.45703,-4.089844 0,-0.505999 -1.16108,-0.917968 -2.58008,-0.917968 -2.412,0 -2.561455,-0.280832 -2.314455,-4.2988283 0.303999,-4.9339951 -0.546393,-6.8753586 -2.650391,-6.0683594 z M 91.302558,11.223828 c 1.443999,-0.378999 2.928767,-0.082 3.759766,0.75 2.480998,2.480998 0.79309,3.48567 -2.753906,1.638672 -3.308997,-1.719998 -3.332857,-1.779672 -1.00586,-2.388672 z m -6.166015,46.890625 10.064453,0.720704 v 5.794921 C 72.010019,63.994079 67.867017,63.91723 73.117012,59.165235 c 1.718998,-1.555999 3.17054,-1.683781 12.019531,-1.050782 z m 14.072265,0.421875 c 17.841982,1.431999 18.029292,1.033551 18.029292,4.560547 0,2.411998 -0.25382,2.527188 -5.25781,2.367188 -11.87398,-0.381 -12.771482,-0.65741 -12.771482,-3.941406 z m -27.28125,7.431641 c 0.949124,-0.376375 3.083942,-0.304922 6.898438,0.01758 15.713984,1.328999 16.375,-0.490652 16.375,3.152344 0,1.376998 -0.336001,2.423265 -0.75,2.322266 -0.413,-0.099 -5.3896,-0.438954 -11.058594,-0.751954 C 75.78641,70.287204 72.838448,69.743937 72.140449,68.635938 71.21545,67.167939 70.978434,66.344344 71.927558,65.967969 Z m 29.789062,0.697266 c 2.0385,0.198624 5.64688,0.945937 11.92187,0.960937 3.848,0.009 3.88166,0.04072 2.09766,2.011719 -3.146,3.476996 -16.527342,2.957371 -16.527342,-0.640625 0,-2.181498 0.469315,-2.530656 2.507812,-2.332031 z M 18.54084,112.33906 c 5.318369,-0.47762 15.799786,-0.31629 36.447265,0.0332 31.740969,0.537 39.212891,0.91895 39.212891,2.00195 -0.001,2.392 -53.089844,0.5458 -53.089844,2.3418 0,1.272 33.961956,1.00195 52.085938,1.00195 v 5.00781 H 70.15998 c -37.966962,0 -10.513309,-2.0039 -38.863281,-2.0039 -16.665983,0 -18.230468,-0.39395 -18.230469,-4.58594 0,-2.204 0.15624,-3.31925 5.47461,-3.79688 z m 123.63671,1.46875 c 22.02773,0.51063 44.14052,1.66508 44.47852,2.95508 1.069,4.086 0.18992,4.20752 -33.49805,4.60352 -17.82798,0.21 -37.7096,0.53556 -44.18359,0.72656 l -11.769528,0.34766 v -4.72266 c 25.348968,0 62.103508,0.22705 62.103508,-1.00195 0,-1.685 -61.101555,-0.31891 -61.101555,-2.00391 0,-1.2825 21.942975,-1.41492 43.970695,-0.9043 z m 36.47071,8.98829 c 4.95499,0.05 6.57917,0.33964 5.20117,0.93164 -2.882,1.23799 -13.78844,1.23799 -13.02344,0 0.341,-0.551 3.86027,-0.96964 7.82227,-0.93164 z m -2.91406,46.49023 c 4.14049,-0.13488 4.10742,1.23003 4.10742,3.95703 v 3.94141 c -59.08094,12.20198 -60.9425,12.96943 -60.4375,9.89843 0.433,-2.62999 -0.99157,-4.25585 -3.72657,-4.25586 -10.17299,-9.9e-4 -4.45976,-1.572 30.90821,-8.5 16.69498,-3.27049 25.00794,-4.90614 29.14844,-5.04101 z m 396.32617,1.15234 c 1.26776,-0.0729 2.41615,0.45002 3.2539,1.72852 3.79,5.78599 0.18367,23.16867 -5.11133,24.63867 -6.09899,1.694 -10.46798,1.37801 -9.83398,-0.70898 0.591,-1.948 1.10949,-5.12142 2.14648,-13.19141 0.8565,-6.66374 5.74163,-12.24803 9.54493,-12.4668 z m -502.890624,7.36328 c 2.358998,-0.13237 6.410788,0.60208 13.175781,2.14258 11.949988,2.722 12.180515,2.91771 11.478516,9.84571 -0.311,3.05499 -0.57961,11.75313 -0.59961,19.32812 -0.036,13.60799 -0.06402,13.77281 -2.291015,13.75781 -4.490996,-0.031 -4.693422,-0.75965 -4.982422,-18.05664 l -0.275391,-16.48437 c -19.58298,-3.912 -19.53125,-3.41043 -19.53125,-7.48242 0,-1.92 0.666393,-2.91841 3.025391,-3.05079 z m 110.013664,3.42188 c 1.324,0.821 1.25497,11.29808 -0.082,12.33008 -0.694,0.535 -14.10761,3.29953 -29.80859,6.14453 -15.70099,2.845 -28.81281,5.16997 -29.13281,5.16797 -2.264,-0.016 -1.39322,-11.73866 0.92578,-12.47266 4.19699,-1.327 57.45565,-11.56592 58.09765,-11.16992 z m -80.976555,2.60351 h 3.806645 c 5.70499,0 9.41902,6.9741 4.45702,8.3711 -0.964,0.271 -3.21681,0.78744 -5.0078,1.14844 l -3.255865,0.65625 z m -66.330078,1.32618 c 0.625,-0.985 11.655961,-0.0136 19.251953,1.69336 0.275,0.062 -0.624954,0.5689 -2.001953,1.1289 -3.334997,1.354 -16.852719,3.70878 -17.511719,3.05078 -0.768999,-0.77 -0.60028,-4.51704 0.261719,-5.87304 z m 82.105463,0.86718 c 2.307,0.446 2.305,4.18391 0,4.62891 -1.313,0.252 -1.75195,-0.32945 -1.75195,-2.31445 0,-1.985 0.43895,-2.56646 1.75195,-2.31446 z m -49.843744,3.53907 6.658203,0.68359 c 8.973991,0.92 10.123828,1.65046 9.923828,6.31445 -0.089,2.088 -0.246469,8.41746 -0.355469,14.06446 -0.142999,7.51799 -0.531266,10.23353 -1.447265,10.14453 -16.620984,-1.623 -18.228264,-3.18133 -16.197266,-15.69531 1.632998,-10.06699 1.417969,-12.60273 1.417969,-15.51172 z m -9.378906,2.04687 c 1.585623,0.37713 2.111641,1.63697 2.43164,3.98047 0.762999,5.591 0.544508,5.81072 -7.146484,7.13672 -7.491993,1.292 -7.446344,1.28708 -8.027344,0.70508 -2.227998,-2.228 0.555129,-9.62877 3.953125,-10.50977 4.558496,-1.184 7.203439,-1.68962 8.789063,-1.3125 z m 59.47265,2.23633 c 2.184,0 2.45533,1.64663 1.36133,8.26563 -1.046,6.32599 -3.36328,4.77408 -3.36328,-2.25391 0,-5.342 0.22095,-6.01172 2.00195,-6.01172 z m -77.126947,0.84375 c 0,10.80299 0.361122,11.17773 -2.421875,11.17773 -1.331999,0 -3.076954,0.2516 -3.876953,0.5586 -2.021998,0.775 -2.713609,-1.6394 -1.72461,-6.02539 0.999999,-4.433 0.727582,-4.14868 4.767578,-5.01367 z m 68.363277,1.17383 c 3.616,-0.018 4.3064,10.1027 0.81641,11.9707 -1.066,0.57 -3.31981,1.03711 -5.00781,1.03711 h -3.070315 c 0,-11.97299 -0.854273,-12.96781 7.261715,-13.00781 z m 73.96094,1.34375 c -0.306,5.21999 -0.28875,4.91553 -0.59375,10.14453 -59.18194,11.11099 -55.34162,10.41033 -60.59961,11.48633 v -10.54688 z m 411.71289,0.64648 h 3.88867 v 11.01758 h -4.50781 c -4.42,0 -4.50714,-0.0619 -4.49414,-3.25391 0.027,-6.49999 0.86028,-7.76367 5.11328,-7.76367 z m 10.02734,1.00196 c 3.377,0 45.79905,6.29103 47.74805,7.08203 2.453,0.994 2.96726,8.51364 0.69726,10.18164 -0.551,0.405 -1.22595,0.69734 -1.50195,0.65234 -1.977,-0.324 -46.73512,-6.79089 -47.32812,-6.83789 -1.26,-0.101 -0.87924,-11.07812 0.38476,-11.07812 z m -22.05273,1.00195 c 2.54799,0 2.82664,9.4422 0.30664,10.4082 -3.099,1.189 -3.73809,-0.1223 -2.8711,-5.90429 0.526,-3.508 1.09346,-4.50391 2.56446,-4.50391 z m -6.12305,0.97656 c 0,1.908 0.22898,9.78028 -0.91602,10.48828 -2.52899,1.564 -13.10742,1.82131 -13.10742,0.32031 0,-7.18199 1.64864,-8.89539 9.76563,-10.15039 z m -151.50586,2.80859 c 3.216,1.117 1.50009,11.10969 -2.0039,11.67969 -1.79,0.292 -5.93023,0.98688 -9.19922,1.54688 -6.588,1.128 -6.11204,1.12662 -9.58204,0.0156 -1.37699,-0.441 -4.12447,-0.84639 -6.10546,-0.90039 -4.739,-0.131 -10.11961,-2.84248 -9.72461,-4.89648 0.315,-1.628 33.77323,-8.43231 36.61523,-7.44532 z m -365.773432,0.32813 c 1.195374,0.35887 1.375359,1.49794 1.318359,3.64844 -0.184,6.95099 -1.080692,8.44748 -5.929687,9.89648 -5.344995,1.599 -3.726082,1.38238 -6.955078,0.48438 -5.895995,-1.644 -2.797931,-11.31405 4.164062,-12.99805 3.997496,-0.968 6.20697,-1.39012 7.402344,-1.03125 z m 498.958982,0.67969 c 2.06487,0.11587 1.90898,1.14125 2.08398,3.21875 0.48,5.70299 -1.04532,6.66005 -14.32031,8.99804 -6.61099,1.165 -12.93474,2.34505 -14.05273,2.62305 -2.582,0.642 -3.47794,-0.27139 -3.46094,-3.52539 0.034,-6.57299 0.1259,-6.63213 14.33789,-9.07812 9.06049,-1.559 13.34724,-2.35221 15.41211,-2.23633 z m 101.58398,2.00976 4.69141,0.70313 c 5.75099,0.861 7.17395,1.63916 4.62695,2.53515 -1.464,0.515 -1.9375,1.62851 -1.9375,4.5625 0,4.177 -0.99591,4.81697 -5.5039,3.54297 -2.84,-0.802 -3.48411,-2.78899 -2.53711,-7.83398 z m -620.224603,1.66992 c 1.729998,1.069 1.31442,8.24622 -0.517578,8.94922 -2.459998,0.943 -7.244923,0.71605 -7.919922,-0.37695 -2.677997,-4.333 4.120504,-11.24126 8.4375,-8.57227 z m 771.337883,0.54102 c 53.23795,0 48.08008,-2.06741 48.08008,11.01758 l -9.76562,0.0918 c -5.371,0.049 -16.00306,0.162 -23.62305,0.25 -16.07798,0.185 -14.69141,0.75241 -14.69141,-6.01758 z m 52.08594,0 c 23.86398,0.363 21.39858,-0.86046 22.14258,12.01953 -6.18399,-0.377 -6.27659,-0.38794 -22.14258,-1.08594 z m -745.42383,0.22852 c 0.99,-0.327 1.23296,0.85361 1.00196,4.84961 -0.187,3.22899 -0.81329,5.44889 -1.61328,5.71289 -0.99,0.326 -1.23296,-0.85457 -1.00196,-4.85157 0.187,-3.22799 0.81328,-5.44793 1.61328,-5.71093 z m -12.33202,1.43164 c 6.18499,-0.836 9.48231,9.27984 3.73632,11.46484 -9.037987,3.436 -8.163183,-1.12784 -7.742184,-10.92383 z m 75.87694,0.3457 c 1.32,-0.002 1.75196,0.8218 1.75196,3.3418 -0.001,3.71199 -0.14032,3.7668 -17.5293,6.71679 -3.85599,0.654 -8.31806,1.58822 -9.91406,2.07422 -1.598,0.487 -4.63505,0.88477 -6.74805,0.88477 -3.56899,0 -9.12858,1.01805 -16.39258,2.99804 -8.99899,2.454 -10.24225,2.3133 -10.78125,-1.2207 -0.274,-1.803 -0.37756,-3.41889 -0.22656,-3.58789 0.405,-0.457 57.78985,-11.20403 59.83984,-11.20703 z m 342.25977,0.46289 c 1.517,0.937 1.35064,9.53284 -0.19336,9.96484 -0.688,0.192 -11.62003,2.01002 -24.29101,4.04102 -12.67099,2.029 -23.85171,3.92394 -24.84571,4.21094 -1.608,0.463 -1.77395,-0.0725 -1.50195,-4.81446 l 0.30469,-5.33593 c 29.29497,-5.728 49.52534,-8.68641 50.52734,-8.06641 z m 66.66797,0.0352 h 8.01172 c 0.292,5.59299 0.30956,5.91653 0.60156,11.51953 h -9.21484 z m 300.74805,0.17968 c 1.166,-0.68299 31.37889,3.73208 31.33789,4.58008 -0.146,2.998 2.01161,3.44021 -12.60938,3.65821 -6.91399,0.102 -13.56244,0.552 -14.77344,1 -3.58899,1.32499 -4.70507,0.27335 -4.70507,-4.43164 0,-2.403 0.337,-4.56565 0.75,-4.80665 z m -287.22657,0.29688 c 4.011,0.562 4.14499,0.58716 25.54297,3.53516 27.59397,3.79999 24.54102,2.6811 24.54102,8.99609 0,6.35699 -0.0347,6.38536 -6.51172,5.44336 -14.00899,-2.037 -23.61329,-2.76525 -43.57227,-6.15625 z m 154.63672,0.50977 c 1.91763,0.85449 1.6211,3.60103 1.6211,9.33203 -19.11398,4.15399 -17.51639,4.74748 -16.52539,-7.3125 8.85649,-1.837 12.98667,-2.87403 14.90429,-2.01953 z m -176.07617,0.51562 c 2.421,0.001 2.49798,0.20177 2.20899,5.75977 -0.272,5.21699 -5.30779,9.95616 -5.92579,5.57617 -0.78,-5.531 1.1238,-11.33594 3.7168,-11.33594 z m -7.45312,1.52148 c 1.71849,0.75925 1.85575,2.79559 1.34375,6.51758 -0.638,4.636 -0.90376,5.00203 -4.34375,5.95703 -4.016,1.116 -4.00493,1.11632 -6.16993,0.32032 -5.00899,-1.841 -6.24824,-10.5613 -1.65625,-11.6543 5.808,-1.382 9.10768,-1.89987 10.82618,-1.14063 z m 163.21679,1.60157 c -0.721,12.44698 1.74417,11.45139 -18.63281,9.40039 -0.372,-5.754 -0.23352,-3.62034 -0.60352,-9.36133 11.58799,-0.024 9.07734,-0.0181 19.23633,-0.0391 z m -501.42578,1.17187 c 1.77875,0.38213 1.4961,1.92024 1.4961,5.11524 0,6.01099 -0.63159,6.61718 -6.89258,6.61718 -5.567,0 -2.38068,1.32663 -12.13868,3.01563 -15.19898,2.635 -15.02539,2.64514 -15.02539,-0.88086 0,-5.31 2.7338,-1.37168 3.7168,-5.13867 0.288,-1.102 0.94975,-2.00391 1.46875,-2.00391 0.519,0 0.68319,-0.41864 0.36719,-0.93164 -0.886,-1.433 0.0766,-1.72452 13.14062,-3.97851 8.249,-1.4225 12.08844,-2.19658 13.86719,-1.81446 z m 320.44141,0.0684 c 1.78162,0.26475 1.72304,1.56979 1.99804,4.23828 0.221,2.155 0.70236,4.66518 1.06836,5.57617 0.684,1.707 -7.75664,4.42521 -9.80664,3.15821 -0.484,-0.3 -1.85011,-0.0768 -3.03711,0.49218 -1.187,0.57 -4.27437,1.52505 -6.85937,2.12305 -10.23899,2.365 -11.82813,1.68879 -11.82813,-5.0332 0,-5.886 -0.9852,-5.33983 15.42578,-8.54883 7.6345,-1.4935 11.25744,-2.27061 13.03907,-2.00586 z m -131.58008,0.17969 c 4.56299,2.82 0.92852,6.01863 -9.10547,8.01562 -9.64599,1.919 -10.58884,2.46463 -9.08984,5.26563 0.847,1.584 0.74276,2.13733 -0.49024,2.61133 -5.19599,1.99299 -9.41601,0.69927 -9.41601,-2.88672 0,-2.977 0.40291,-3.58253 2.7539,-4.14453 3.779,-0.902 5.13471,-2.14113 4.59571,-4.20313 -0.474,-1.811 18.47695,-6.0632 20.75195,-4.6582 z m 237.62305,3.08789 c 4.65199,0.144 4.36622,-0.20846 4.94922,6.14453 l 0.48242,5.25781 c -8.12999,-0.001 -10.39388,0.74699 -9.54688,-8.125 0.309,-3.22599 0.51124,-3.38934 4.11524,-3.27734 z m -195.60938,0.125 v 5.11914 c 0.001,5.85999 1.62559,5.01057 -15.52539,8.10156 -6.05999,1.092 -13.38435,2.2873 -16.27734,2.6543 l -5.25782,0.66797 c 0,-6.024 -0.59413,-6.05632 4.50586,-6.82031 5.834,-0.876 5.9985,-2.94518 0.5625,-2.07618 -2.27099,0.363 -4.21036,0.20496 -4.56836,-0.37304 -0.341,-0.552 -0.3704,-1.00391 -0.0664,-1.00391 0,0 23.53496,-4.60153 36.62695,-6.26953 z m 365.60742,1.47852 c 27.20698,-0.358 26.04297,-0.64145 26.04297,6.31054 v 5.49024 h -60.23242 c 0.613,-5.326 -0.0204,-5.46836 5.64258,-5.81836 5.35799,-0.333 6.982,-1.25538 7,-3.98438 0.011,-1.557 2.00389,-1.74105 21.54687,-1.99804 z m 30.54492,0.28124 c 23.89398,0.047 21.53711,-1.35323 21.53711,13.59376 l 4.75782,2.08007 c 3.54299,1.547 7.70035,2.21147 16.27734,2.60547 6.33499,0.291 11.76355,0.90533 12.06055,1.36133 0.297,0.458 5.70554,1.24877 12.01953,1.75977 6.31299,0.512 18.03293,2.17722 26.04492,3.69921 14.19599,2.698 23.25361,2.85045 18.72461,0.31446 -1.92,-1.075 -2.5532,-10.26828 -0.7832,-11.36328 0.901,-0.556 20.45675,1.75722 28.09375,3.32421 13.39493,2.748 4.01433,11.74605 -10.55469,10.12305 -11.29199,-1.258 -11.5485,-1.24028 -13.8125,0.88672 -1.27,1.193 -3.40705,2.11759 -4.74805,2.05859 -6.27699,-0.277 -28.20533,-4.81554 -30.48633,-6.31054 -2.20299,-1.443 -2.94011,-1.49252 -5.2871,-0.35352 -2.298,1.118 -4.69211,1.0538 -15.2461,-0.4082 -18.99398,-2.63 -28.19763,-3.66972 -35.39062,-5.88672 -4.304,-1.326 -6.56376,-1.54589 -8.59375,-0.83789 -4.835,1.686 -119.17215,0.68817 -120.24414,-1.04883 -0.724,-1.172 -2.07306,-1.2524 -7.49805,-0.4414 -7.86399,1.17499 -7.57031,1.37483 -7.57031,-5.16016 v -5.19531 c 17.93998,-2.963 17.02734,-3.54629 17.02734,8.7207 3.24,0.136 7.16835,0.34245 16.02734,0.43945 4.132,0.044 8.52663,0.44663 9.76563,0.89063 1.288,0.463 2.2539,0.41467 2.2539,-0.11133 0,-1.364 67.75301,-1.33766 70.75,0.0273 1.779,0.81 2.99177,0.76241 4.75977,-0.18359 1.613,-0.862 4.65682,-1.08441 9.50781,-0.69141 3.925,0.316 7.13477,0.18975 7.13477,-0.28125 0,-2.57399 -14.15396,-2.08579 -17.12695,-2.09179 z m -746.73242,0.50196 c 0.551,0 1.00196,1.35286 1.00196,3.00586 -0.001,3.11299 -0.20494,3.46793 -1.33594,2.33594 -1.049,-1.049 -0.78002,-5.3418 0.33398,-5.3418 z m 858.51172,0.53515 c 1.8175,-0.38112 5.50656,0.0973 13.12305,1.00782 17.75101,2.12299 18.02271,2.2508 17.63871,8.21679 -0.383,5.945 1.3686,5.71602 -20.32035,2.66602 -11.99499,-1.685 -12.63289,-2.08443 -12.33789,-7.73242 0.1325,-2.535 0.079,-3.77708 1.89648,-4.15821 z m -454.17578,0.81055 c 2.83387,0.31613 2.71927,1.93252 2.50977,5.16602 -0.482,7.45599 -1.65455,8.24878 -13.01953,8.80078 -5.332,0.259 -16.15765,1.58817 -24.05665,2.95117 -16.11598,2.781 -15.87876,2.85548 -14.75976,-4.60352 0.765,-5.10499 -0.64588,-4.63659 29.12109,-9.68359 11.58799,-1.964 17.37121,-2.94698 20.20508,-2.63086 z m -414.31054,0.44727 c 4.81799,-0.314 6.68496,2.44039 3.91796,5.77539 -2.46699,2.97399 -7.680369,1.8284 -8.234368,-1.8086 -0.608,-3.98999 -1.014589,-3.61679 4.316408,-3.96679 z m 486.93359,0.24414 c 2.353,-0.05 4.83984,1.01817 4.83984,2.07617 -10e-4,1.234 -1.06886,1.07158 -4.00586,-0.60742 -1.788,-1.023 -2.02698,-1.44175 -0.83398,-1.46875 z m 9.84765,2.04297 c 0,-0.903 45.88315,4.51387 46.99414,5.54687 2.057,1.914 -39.19403,-4.87092 -42.33203,-4.16992 -2.07999,0.467 -4.66211,-0.29695 -4.66211,-1.37695 z m 116.79688,1.92968 c 2.425,0 0.0709,2.35124 1.21289,3.49024 0.376,0.375 0.72911,2.44647 0.78711,4.60547 0.099,3.65899 -1.15341,5.04485 -2.94141,3.25586 -1.533,-1.532 -0.71759,-11.35157 0.94141,-11.35157 z m -304.10742,1.00188 c 3.60499,-1.155 10.19971,-1.155 7.51172,0 -1.102,0.474 -3.80577,0.84803 -6.00977,0.83203 -3.442,-0.025 -3.65295,-0.14303 -1.50195,-0.83203 z m -180.28711,1.50781 c 2.83099,0.898 1.46128,2.5 -2.13672,2.5 -1.652,0 -4.89313,0.41492 -7.20313,0.91992 -5.78499,1.269 -12.74996,2.48294 -18.37695,3.58594 -3.114,0.61 -5.81006,-1.06289 -3.16406,-1.96289 4.50799,-1.536 29.21786,-5.57097 30.88086,-5.04297 z m 185.5,1.14844 c 3.93599,-0.182 5.36221,3.73973 2.19922,6.05273 -3.778,2.763 -10.42188,1.69131 -10.42188,-1.67969 0,-3.21799 1.59766,-4.06804 8.22266,-4.37304 z m 42.61133,1.36133 c 3.24199,-0.009 3.25585,0.0104 3.25586,5.02343 9.9e-4,6.042 0.15959,5.95608 -15.5254,8.45508 -9.43499,1.503 -16.08073,3.53906 -11.55273,3.53906 0.753,0 1.06059,0.3066 0.68359,0.6836 -1.25499,1.256 -7.3969,1.23279 -9.1289,-0.0332 -3.342,-2.44399 -1.64625,-7.1107 2.71875,-7.4707 2.066,-0.171 3.75586,-0.77008 3.75586,-1.33008 0,-0.56 -1.56743,-0.88179 -3.48243,-0.71679 -4.51199,0.389 -6.80602,-1.61408 -2.95703,-2.58008 6.469,-1.623 29.25843,-5.56132 32.23243,-5.57031 z m -55.8418,0.76367 c 0,4.53099 0.29206,7.23828 -1.58594,7.23828 -2.143,0 -0.99201,2.5749 0.45899,2.2539 1.11499,-0.249 2.76108,2.22429 -2.62891,3.11329 -7.02099,1.16099 -7.04692,1.14357 -7.41992,-4.85743 -0.379,-6.05599 -0.42098,-6.00873 6.54101,-7.05273 z m -173.04883,3.21679 c 2.30125,0.141 2.78103,1.02376 2.58203,2.71875 -0.307,2.623 -0.67495,2.77037 -12.33594,4.94336 -6.61099,1.233 -12.35748,2.26969 -12.77148,2.30469 -0.413,0.036 -0.75195,-1.40703 -0.75195,-3.20703 v -3.27539 l 9.76757,-1.75195 c 7.086,-1.273 11.20852,-1.87343 13.50977,-1.73243 z m 190.07617,4.30274 c 0,0.909 -1.41786,1.69503 -3.75586,2.08203 -7.01999,1.16 -12.02476,-0.16271 -6.50976,-1.7207 5.70899,-1.613 10.26562,-1.77333 10.26562,-0.36133 z m -220.10351,0.91015 c 1.337,-0.258 1.74218,0.35077 1.74218,2.63477 0,3.179 -2.6819,5.19456 -3.6289,2.72656 -0.903,-2.352 0.0297,-5.00433 1.88672,-5.36133 z m 214.39453,2.86524 c 2.89212,-0.3315 5.71875,0.68891 5.71875,3.37891 -0.001,2.02199 -0.70482,2.68229 -3.75781,3.52929 -6.889,1.913 -8.43418,1.49817 -8.07618,-2.17383 0.2645,-2.71999 3.22312,-4.40287 6.11524,-4.73437 z m -185.28125,0.87891 c 1.107,1.10699 -0.39276,1.51426 -11.34375,3.07226 -4.132,0.588 -8.41363,1.33134 -9.51563,1.65234 -1.484,0.432 -1.72201,0.28364 -0.91601,-0.56836 1.613,-1.70599 20.60139,-5.33024 21.77539,-4.15624 z m 173.96875,1.8125 c 10e-4,2.62099 0.277,7.26635 -1.25,7.31835 -4.15,0.145 -9.3505,2.48869 -10.1875,0.30469 -0.735,-1.915 1.11339,-6.35514 2.65039,-6.36914 0.702,-0.006 2.96625,-0.29181 5.03125,-0.63281 z m -203.34375,2.97851 c 1.101,-0.288 2.2545,-0.11423 2.5625,0.38477 0.904,1.46299 -8.3005,1.11623 -2.5625,-0.38477 z m 1394.31835,62.39453 c 6.498,0.14 5.6766,-0.12313 35.5586,4.50586 0,10.75599 1.1523,11.33091 -10.0156,9.50391 -24.479,-4.014 -25.543,-2.39807 -25.543,-9.53907 z m 43.9199,5.57617 c 5.267,0.952 43.4165,6.44336 44.7715,6.44336 4.141,0 3.8007,11.11202 0.5957,10.91602 -6.99,-0.433 -47.6597,-7.00625 -48.1387,-7.78125 -1.911,-3.092 0.1055,-10.06113 2.7715,-9.57813 z m -41.6016,7.55274 c 2.4278,-0.35688 7.3921,0.43297 17.5411,1.98047 16.1839,2.46899 19.5683,5.06944 15.3183,11.77343 -0.78,1.232 -23.026,-1.32672 -30.539,-3.51171 -1.264,-0.369 -1.7278,-0.11185 -1.4278,0.78515 0.244,0.731 1.5323,1.58639 2.8633,1.90039 2.864,0.677 1.3556,1.83413 -1.5664,1.20313 -3.231,-0.697 -4.8737,-2.37024 -3.3027,-3.36524 1.001,-0.635 1.0118,-0.82979 0.047,-0.84179 -0.833,-0.01 -1.2519,-1.69344 -1.2519,-5.02344 0,-3.04 -0.1094,-4.54352 2.3183,-4.90039 z m 97.1465,0.89453 c 4.397,0 5.709,1.54094 5.709,6.71094 0,4.65499 -1.5088,5.38443 -6.7597,3.27343 -4.151,-1.66899 -3.2753,-9.98437 1.0507,-9.98437 z m -57.9316,4.6582 c 1.385,-0.531 47.0259,5.87546 48.5449,6.81446 5.541,3.42499 -7.5908,4.42767 -23.4687,7.01367 -2.538,0.413 -20.7673,-2.21957 -24.0743,-3.47657 -2.694,-1.02499 -3.5049,-9.39156 -1.0019,-10.35156 z m -30.8926,8.6211 c 1.6538,-0.0714 7.3892,0.49183 16.0977,1.73632 16.628,2.376 18.3359,2.75699 18.3359,4.08399 10e-4,0.512 -0.336,0.88131 -0.75,0.82031 -0.413,-0.062 -3.9077,-0.71517 -7.7637,-1.45117 -3.856,-0.736 -11.7443,-2.1411 -17.5293,-3.12109 -7.6165,-1.291 -10.0443,-1.99699 -8.3906,-2.06836 z m 87.0215,4.75 c 0.934,0 1.5019,0.9449 1.502,2.5039 9e-4,2.432 -0.974,3.19794 -2.336,1.83594 -1.26,-1.26 -0.668,-4.33984 0.834,-4.33984 z m -41.6191,1.43945 c 6.8659,1.004 4.2952,2.22608 11.4472,3.20508 2.576,0.354 4.9238,1.0299 5.2168,1.5039 0.633,1.023 0.9924,1.05691 -9.1015,-0.87109 -9.105,-1.739 -15.5395,-5.00589 -7.5625,-3.83789 z m 34.2109,0.12695 c 0.494,0.305 0.8984,0.98005 0.8984,1.49805 0,1.191 -6.7055,1.2475 -7.4375,0.0625 -0.625,-1.012 5.1851,-2.39755 6.5391,-1.56055 z m 27.9434,11.48438 c 1.377,0 3.1788,0.4357 4.0058,0.9707 1.189,0.769 0.9801,0.9707 -1.0019,0.9707 -1.377,0 -3.1809,-0.4367 -4.0079,-0.9707 -1.189,-0.768 -0.979,-0.9707 1.004,-0.9707 z m 21.496,3.45703 c 0.4467,-0.32713 1.5955,-0.18513 3.795,0.17187 3.673,0.596 5.9845,4.56594 4.2715,7.33594 -1.061,1.717 -5.5348,1.18548 -6.1368,-0.72851 -0.302,-0.965 -0.9827,-2.82477 -1.5097,-4.13477 -0.611,-1.5205 -0.8666,-2.31741 -0.42,-2.64453 z m 16.0645,1.97851 c 10.176,1.272 11.342,2.7768 3.459,4.4668 -10.355,2.221 -7.011,0.72239 -8.625,-3.47461 -0.595,-1.551 -0.09,-1.64818 5.166,-0.99219 z m 15.9648,6.97657 c 0.9155,0.42362 1.5665,1.50123 1.5665,3.05273 0,2.044 -0.4902,2.53516 -2.5352,2.53516 -3.104,0.001 -4.3085,-2.60166 -2.1875,-4.72266 1.06,-1.06 2.2407,-1.28886 3.1562,-0.86523 z m -15.1308,2.31836 c 3.25,-1.306 7.6816,-0.86438 7.6816,0.76562 0,1.581 -0.3897,1.62147 -6.0097,0.60547 -2.774,-0.501 -3.1239,-0.78709 -1.6719,-1.37109 z m -11.2695,2.26953 c 2.841,0 2.9238,0.14181 2.9238,5.00781 0,7.12999 -2.7283,6.42104 -4.8223,-1.25195 -1.015,-3.717 -0.9955,-3.75586 1.8985,-3.75586 z m 6.8066,0.86523 c 0.816,-0.42512 2.3882,-0.18276 5.4102,0.36524 7.2009,1.30499 10.6034,4.80725 5.9824,6.15625 -8.974,2.61699 -12.2696,1.84313 -12.2696,-2.88086 0,-2.1225 0.061,-3.2155 0.877,-3.64063 z m 16.9961,2.1543 c 1.896,0.017 4.8428,1.66259 4.1348,2.30859 -1.889,1.726 -4.7758,1.56503 -5.2618,-0.29297 -0.377,-1.43999 -0.05,-2.02662 1.127,-2.01562 z m 1.6601,5.99414 c 2.003,0 2.5039,0.50091 2.504,2.50391 0,2.42399 -2.6369,3.53993 -4.3399,1.83593 -1.705,-1.704 -0.5891,-4.33984 1.8359,-4.33984 z m -12.2539,1.6543 c 3.942,-0.782 6.1813,-0.17008 5.1973,1.41992 -0.634,1.026 -1.5018,1.02772 -5.9668,0.0117 l -3.0039,-0.6836 z" />
</svg>
