<?xml version="1.0" encoding="UTF-8" standalone="no"?>
<svg
   version="1.1"
   id="Layer_1"
   x="0px"
   y="0px"
   viewBox="0 0 1840.8064 580.66803"
   enable-background="new 0 0 6000 2911.49"
   xml:space="preserve"
   sodipodi:docname="industrial-4951733.svg"
   width="1840.8064"
   height="580.66803"
   inkscape:version="1.2.2 (b0a8486541, 2022-12-01)"
   xmlns:inkscape="http://www.inkscape.org/namespaces/inkscape"
   xmlns:sodipodi="http://sodipodi.sourceforge.net/DTD/sodipodi-0.dtd"
   xmlns="http://www.w3.org/2000/svg"
   xmlns:svg="http://www.w3.org/2000/svg"><defs
   id="defs2492">
	
	
	
	
</defs><sodipodi:namedview
   id="namedview2490"
   pagecolor="#ffffff"
   bordercolor="#666666"
   borderopacity="1.0"
   inkscape:showpageshadow="2"
   inkscape:pageopacity="0.0"
   inkscape:pagecheckerboard="0"
   inkscape:deskcolor="#d1d1d1"
   showgrid="false"
   inkscape:zoom="0.36172373"
   inkscape:cx="551.52589"
   inkscape:cy="193.51786"
   inkscape:window-width="1872"
   inkscape:window-height="1032"
   inkscape:window-x="48"
   inkscape:window-y="48"
   inkscape:window-maximized="1"
   inkscape:current-layer="Layer_1" />
<path
   id="path2479"
   d="m 1553.6638,0 c -0.5272,5.1232 -1.3047,7.5331 -1.1152,18.1797 l 1.0625,-0.086 c -0.021,-1.898 -0.021,-3.7739 0,-5.6289 0.429,0.343 1.2868,1.0398 1.7148,1.3828 -2.542,32.88 -0.9417,26.1384 -3.8047,31.8984 -0.105,-3.979 2.1085,-24.7648 2.2285,-25.8398 -0.525,0.418 -1.5638,1.2434 -2.0898,1.6504 -1.051,7.934 -1.6302,15.9221 -1.9942,23.9101 -0.068,1.227 -3.3984,34.8145 -3.3984,34.8145 -0.905,11.058 -4.7412,26.2646 -5.9082,29.5586 -1.126,2.659 -0.5688,5.5436 0.074,8.2676 -1.415,0.407 -2.8738,0.7726 -4.2578,1.2226 0.461,1.555 0.9652,3.1305 1.4902,4.7285 -2.713,0.171 -5.3918,0.4495 -8.0078,1.1465 -0.407,-0.289 -1.2326,-0.8682 -1.6406,-1.1582 -0.237,-1.095 -3.453,-20.293 -1.459,-27.834 -1.501,-2.294 -2.6916,-4.7492 -3.5176,-7.3222 -0.676,0 -2.0146,-0.012 -2.6796,-0.012 -0.822,27.238 -0.3466,7.8366 -3.5606,27.0625 -0.847,-0.397 -1.6726,-0.7497 -2.4766,-1.0937 -0.579,0.3 -1.7161,0.8787 -2.2851,1.1797 -0.343,0.74 -0.6649,1.5117 -0.9649,2.3047 0.783,1.919 1.5328,3.8819 2.2618,5.8769 -2.938,0.032 -5.8526,0.054 -8.7696,0.086 -0.69,-2.224 -0.8101,-2.2294 -1.2441,-5.7364 -0.547,0.429 -1.6522,1.2656 -2.1992,1.6836 -0.021,-3.313 0.3432,-6.8629 -1.8008,-9.6289 -1.63,4.943 -1.9618,10.1864 -3.1738,15.2364 -1.062,4.7179 -3.1095,9.1341 -4.3965,13.7871 0.15,0.826 0.3219,1.6737 0.5039,2.5527 -0.279,3.946 -0.9757,7.9664 0.2793,11.8594 -0.547,0.396 -1.6503,1.2104 -2.1973,1.6074 -0.021,1.179 -0.01,2.392 0.012,3.625 1.051,0.933 2.1228,1.9082 3.2168,2.9062 -0.021,1.844 -0.022,3.7087 0.01,5.5957 2.166,0.869 4.376,1.8122 6.209,3.3672 4.685,1.19 9.4895,1.8665 14.2715,2.6055 1.737,2.852 2.22,6.1323 2.209,9.4453 -2.809,0.011 -5.6403,-0.1699 -8.4063,0.2481 -2.798,2.466 -0.9543,6.9682 -1.4473,10.3242 2.348,0.172 4.717,0.3857 7.086,0.7187 0.783,-0.279 1.5871,-0.5252 2.4121,-0.7402 0.094,1.073 1.4643,16.2176 1.3203,19.5156 -3.603,-0.011 -7.2049,-0.011 -10.7969,0 -0.011,3.913 -0.011,7.8267 0,11.7617 0.804,0.021 2.4116,0.052 3.2266,0.062 -0.011,0.515 -0.012,1.5339 -0.012,2.0489 -0.665,0.032 -2.0167,0.1074 -2.6817,0.1504 -2.659,2.766 -5.7678,5.0377 -9.0918,6.9257 -0.032,1.211 -0.042,2.445 -0.031,3.711 6.026,-0.89 12.1794,1.5878 18.0664,-0.074 2.262,4.3 0.9546,9.3496 1.2226,14.0136 -3.57,-0.011 -7.1402,-0.011 -10.6992,0 -0.021,2.112 -0.021,4.2559 0,6.4219 3.463,-0.032 6.9369,-0.042 10.4219,0.2051 -3.056,1.962 -6.6698,2.1341 -10.1758,2.0371 -2.299,19.543 -0.9448,-4.8164 -0.2148,29.8926 -2.605,0.933 -5.3379,1.2749 -7.9219,0.1699 -0.386,0.257 -1.1589,0.7628 -1.5449,1.0098 0.407,1.522 0.7717,3.0126 1.1797,4.5996 -1.222,-0.515 -2.4331,-1.0076 -3.6231,-1.4785 0.021,0.5359 0.075,1.6065 0.1074,2.1425 0.793,0.011 2.3914,0.054 3.1953,0.064 0,0.761 0.01,2.2627 0.02,3.0137 -3.281,1.04 -6.7105,1.3821 -9.9805,0.1601 0.311,2.145 0.664,4.3435 1.082,6.5195 -5.254,0.021 -10.7222,-0.826 -15.7402,1.125 -4.685,1.683 -9.5211,3.143 -14.5391,3.25 -0.901,-0.954 -1.7909,-1.8756 -2.6699,-2.7656 -0.011,1.512 0,3.0444 0.033,4.6094 -4.6,1.405 -9.3182,2.3044 -13.9922,3.3984 0.428,-4.423 -2.1462,-40.8715 -1.4062,-44.1855 -3.367,-9.382 -3.9665,-19.4925 -5.5215,-29.2715 -1.544,-5.726 3.5601,-10.4849 2.8731,-16.2539 -0.557,-0.44 -1.6823,-1.3188 -2.2403,-1.7578 -0.665,1.662 -1.2881,3.3555 -1.9101,5.0605 -0.536,-2.209 -1.0929,-4.3972 -1.6289,-6.5742 2.563,-0.933 5.1347,-1.8546 7.7187,-2.7656 0.118,-6.337 0.2373,-12.7271 -1.2637,-18.9141 -2.252,-0.493 -5.6498,0.9328 -6.8828,-1.5332 -3.433,-12.614 0.175,-12.8023 -1.416,-21.6133 1.866,0.986 4.7178,1.6183 3.9668,4.3633 0.097,2.638 0.2048,5.2851 0.3438,7.9551 l 0.9648,0.033 c -0.029,-1.075 1.0446,-44.7053 1.6836,-48.2813 -1.662,-4.0099 0.6956,-7.602 3.5586,-10.25 0.054,-0.633 0.1618,-1.909 0.2148,-2.541 -2.176,-0.547 -4.365,-1.0505 -6.541,-1.4785 0.547,-2.691 0.7514,-5.4257 0.4414,-8.1387 l 0.1719,-0.2031 c -1.426,-7.602 0.1605,-15.3863 -1.0625,-22.9883 -0.493,-2.809 -0.6338,-5.6517 -0.6758,-8.4707 0.772,-0.997 1.6088,-1.9075 2.4238,-2.8515 -0.515,-0.418 -1.5446,-1.2441 -2.0586,-1.6621 -0.225,-5.768 -1.1373,-11.4409 -2.7773,-16.9629 2.048,-0.054 3.968,-0.7607 5.834,-1.5977 -0.043,-0.815 -0.1387,-2.4448 -0.1817,-3.2597 -1.683,-0.032 -3.3353,-0.033 -4.9863,-0.012 -0.407,-1.405 -0.7934,-2.7662 -1.1894,-4.1172 0.965,-0.911 1.952,-1.8119 2.9589,-2.6699 0.032,-1.201 0.085,-2.3793 0.1602,-3.5273 -1.201,-0.611 -2.2514,0.3008 -3.4414,-0.074 0.032,0.461 0.085,1.3602 0.1172,1.8222 l -1.4375,-0.064 c 0.386,-1.426 0.8273,-2.7865 1.2773,-4.1485 -2.331,-0.635 -2.1987,-0.6398 -5.1367,-0.8808 -0.365,0.461 -1.1037,1.3632 -1.4687,1.8242 0.407,0.504 1.2326,1.5116 1.6406,2.0156 -0.643,0.054 -1.9293,0.1397 -2.5723,0.1817 -0.879,2.144 -1.8228,5.1785 1.2012,6.1445 0,1.254 0.01,2.5511 0.031,3.8691 -1.029,-0.504 -2.0472,-0.985 -3.0332,-1.457 -0.3,1.276 -0.5579,2.6153 -0.8359,3.9453 0.247,0.611 0.7498,1.8326 1.0078,2.4336 0.868,0.043 2.6037,0.1308 3.4727,0.1738 -0.643,0.322 -1.9078,0.9644 -2.5508,1.2754 1.19,6.315 -0.9648,12.6416 -1.4688,18.9356 0.901,0.021 2.7133,0.074 3.6133,0.096 -0.246,2.47 -3.5324,38.212 -3.4004,48.207 -0.525,0 -1.5638,0 -2.0898,0.01 -0.021,-0.729 -0.076,-2.187 -0.098,-2.916 -0.482,-0.418 -1.4264,-1.2637 -1.8984,-1.6817 -2.016,4.943 -1.4899,11.7294 -6.4219,14.9024 0.375,0.686 0.7715,1.415 1.1895,2.166 -1.193,0.338 -10.1129,-1.146 -4.9629,13.541 1.222,0.504 2.4869,0.9668 3.7949,1.3848 -0.504,0.879 -0.9765,1.7791 -1.4375,2.7011 0.6,-0.053 1.8128,-0.1491 2.4238,-0.2031 -1.008,1.512 -1.9942,3.0321 -2.9062,4.6191 0.697,-0.354 2.1006,-1.0717 2.8086,-1.4257 -0.021,0.568 -0.054,1.7159 -0.064,2.2949 -0.826,-0.011 -2.465,-0.032 -3.291,-0.043 0.515,1.051 1.0285,2.135 1.5645,3.25 2.359,-0.021 4.7189,-0.021 7.0878,0 -0.1719,7.773 0.9418,15.7936 -1.8242,23.2676 -2.455,-0.418 -4.9114,-0.7296 -7.3554,-0.9766 -0.547,1.147 -1.0825,2.3159 -1.6075,3.5059 0.557,-0.021 1.6842,-0.075 2.2422,-0.1074 l -0.021,0.9336 c -2.434,0.493 -4.8582,1.0302 -7.2812,1.4902 -0.3,0.386 -0.878,1.1472 -1.168,1.5332 1.726,6.047 0.6976,12.3936 0.9336,18.6016 3.485,-0.011 7.0001,-0.2344 10.4961,0.1836 0.686,1.147 1.3409,2.3465 1.9629,3.6015 -1.587,-0.804 -3.0881,-1.6193 -4.5781,-2.4883 -0.633,-0.097 -1.8993,-0.2894 -2.5313,-0.3964 1.598,2.649 2.5964,5.5968 1.5664,8.6738 0.204,0.268 0.599,0.7935 0.793,1.0625 1.018,-0.483 2.0584,-0.9336 3.1094,-1.3516 -0.874,33.045 -6.3076,18.6122 -6.5196,76.9512 -0.997,-1.029 -1.962,-2.0364 -2.916,-3.0234 -1.801,0.89 -3.5488,1.8548 -5.2968,2.8418 -1.297,2.7449 -2.7337,5.446 -4.4707,7.955 -0.418,-18.72 -0.064,-37.4519 -0.1817,-56.1718 2.391,-0.375 4.8019,-0.7831 7.1719,-1.3301 0.45,-1.576 0.934,-3.1306 1.459,-4.6426 -0.869,-0.986 -1.716,-1.9401 -2.541,-2.8731 0.708,-0.043 2.1348,-0.1386 2.8418,-0.1816 -0.482,-1.019 -0.9543,-2.005 -1.4043,-2.959 -1.448,0.429 -2.8956,0.8457 -4.3106,1.3067 0,0.719 -0.021,2.1772 -0.021,2.9062 -1.608,-0.043 -3.2065,-0.064 -4.7715,-0.064 1.308,-0.869 2.649,-1.7046 4,-2.5196 -0.772,-0.675 -1.5227,-1.3301 -2.2617,-1.9511 -1.137,0.547 -2.2619,1.1163 -3.3769,1.6953 -0.011,0.708 -0.022,2.1338 -0.033,2.8418 -1.63,-0.043 -3.2487,-0.064 -4.8457,-0.064 1.329,-0.847 2.6914,-1.6506 4.0644,-2.4336 -0.697,-0.708 -1.3714,-1.4065 -2.0254,-2.0605 l -0.666,1.459 c -0.418,-0.364 -1.2441,-1.1038 -1.6621,-1.4688 -0.602,2.566 -1.959,9.102 -2.209,11.332 2.702,0.708 6.0579,0.023 8.2559,2.0606 0.397,6.304 0.515,12.7158 -0.418,19.0098 1.362,11.7189 0.2358,23.5763 0.6328,35.3593 -4.879,-1.448 -9.9815,-1.114 -14.9785,-1.039 -0.075,-1.565 -0.1177,-3.0994 -0.1387,-4.6114 -2.048,-2.058 -3.9672,-4.2139 -5.9082,-6.3359 -0.461,0.589 -1.3828,1.7694 -1.8438,2.3594 -1.619,-0.032 -3.2274,-0.032 -4.8144,0 -0.182,2.809 -0.5149,5.6397 -1.2539,8.3847 -3.935,0.74 -8.0084,1.8322 -11.9434,0.4922 -1.898,0.45 -3.7971,0.901 -5.6621,1.416 -1.308,-0.332 -2.6256,-0.6641 -3.8906,-0.9101 0.011,-2.027 0.043,-4.0329 0.096,-6.0059 -2.584,-2.059 -5.6604,-4.4481 -8.9844,-2.4121 -0.461,-0.311 -1.3632,-0.9214 -1.8242,-1.2324 -0.134,-4.467 1.7972,-26.5745 -7.3438,-70.7324 0.922,-2.927 2.1765,-5.7465 4.1485,-8.1055 0.075,-2.788 -0.1072,-5.6304 -1.5762,-8.0644 -1.351,0.826 -2.6263,1.7578 -3.9023,2.7128 0.901,1.169 1.7899,2.381 2.6699,3.625 -3.249,-0.793 -3.4955,-4.1498 -4.0215,-6.8418 1.297,-0.225 2.6173,-0.4066 3.9473,-0.5566 3.989,0.439 6.7651,-4.3311 5.7031,-7.9121 0.129,-0.965 0.2687,-1.8978 0.4297,-2.7988 -2.112,-0.665 -2.1985,-2.2083 -1.5235,-3.9453 l -0.8261,-0.3223 c 0.375,-0.461 1.1374,-1.3828 1.5234,-1.8438 -0.611,-0.021 -1.8326,-0.055 -2.4336,-0.076 -0.021,-1.34 -0.021,-2.6466 0,-3.9336 -2.477,-0.354 -4.921,-0.7829 -7.334,-1.3399 -0.333,-6.38 -2.9701,-13.1994 0.5899,-19.1504 -0.622,-2.895 -0.8271,-5.8544 -0.9121,-8.7714 0.45,0 1.3515,0.012 1.8125,0.012 0.708,2.016 1.4891,4.0406 2.3261,6.0566 -0.793,0.997 -1.5539,2.0376 -2.2929,3.0996 2.048,0.568 4.1067,1.1893 6.1757,1.8223 -0.836,0.729 -1.6628,1.4799 -2.4668,2.2519 l -0.062,-1.4902 -1.6523,0.3008 c 1.555,1.222 3.1317,2.4445 4.7617,3.6445 0,-0.522 0.6217,-35.5653 0.7617,-36.0683 -2.08,-6.037 1.5118,-12.1472 -0.3222,-18.1192 1.222,-2.048 3.0773,-3.5501 5.0293,-4.8691 0,-0.579 0.02,-1.7472 0.031,-2.3262 -2.959,-0.343 -5.683,-1.4898 -8.084,-3.1738 0.311,-0.461 0.9449,-1.3945 1.2559,-1.8555 -1.523,-10.518 -1.2973,-21.2296 -3.2383,-31.6836 0.944,-4.803 1.1374,-9.7251 -0.5566,-14.4101 0.236,-0.386 0.6956,-1.1802 0.9316,-1.5762 -0.901,-2.906 -1.6731,-5.8328 -2.4121,-8.7598 0.826,-0.011 2.4777,-0.053 3.3027,-0.062 0.868,-1.469 1.7253,-2.9392 2.6153,-4.3652 -1.061,-1.608 -2.1119,-3.2058 -3.1739,-4.7598 -0.118,0.686 -0.3644,2.0601 -0.4824,2.7461 -0.879,-0.054 -2.6483,-0.1416 -3.5273,-0.1836 4.103,-6.92 0.5746,8e-4 3.8926,-7.7832 -1.201,-1.136 -2.4123,-2.2724 -3.6133,-3.3554 0.332,0.675 0.9853,2.0251 1.3183,2.7011 -0.89,0 -2.6588,0.012 -3.5488,0.012 0.44,-0.6 1.3188,-1.8128 1.7578,-2.4238 -2.273,-0.44 -4.5446,-0.8037 -6.8066,-1.0937 0.011,0.901 0.02,2.714 0.02,3.625 -1.019,-0.579 -2.0254,-1.1361 -3.0234,-1.6621 1.126,2.777 0.6537,5.6716 -0.6543,8.3085 0.472,2.777 0.4294,5.6181 -0.3106,8.3731 0.45,-0.032 1.3625,-0.1067 1.8125,-0.1387 -0.011,3.656 -0.011,7.324 0,11.002 0.536,-0.408 1.6066,-1.2346 2.1426,-1.6426 -0.011,-1.716 -0.02,-3.42 0.012,-5.082 l 1.0606,0.012 c -0.011,3.206 -0.011,6.4224 0,9.6504 -0.515,0 -1.5331,0.01 -2.0371,0.01 -0.043,-0.611 -0.1289,-1.8226 -0.1719,-2.4336 -0.515,0.418 -1.5551,1.2442 -2.0801,1.6622 -0.011,2.745 -0.011,5.5218 0,8.2988 0.708,-0.032 2.1455,-0.1172 2.8535,-0.1602 -1.426,15.515 -3.1324,31.0293 -5.1914,46.4903 -0.482,-0.407 -1.4359,-1.2227 -1.9179,-1.6407 -0.011,-0.836 -0.032,-2.5084 -0.043,-3.3554 -0.976,1.351 -1.9193,2.7244 -2.8633,4.1074 -1.104,3.989 -2.6915,7.8265 -4.7285,11.4394 -1.405,-0.086 -2.7969,-0.1496 -4.1699,-0.1816 -3.088,3.86 -1.544,8.5779 -0.836,12.9629 3.12,-0.011 6.2497,-0.011 9.3907,0 0,0.525 7e-4,1.5746 0.012,2.0996 -2.756,0.021 -5.5004,0.065 -8.2344,0.2149 1.619,2.1229 3.3879,4.138 5.2109,6.121 -1.147,0.515 -2.2939,1.0622 -3.4199,1.6192 -0.011,1.984 -0.021,3.9903 0,6.0273 2.391,-0.021 4.7931,-0.021 7.2051,0 0.418,0.547 1.2558,1.63 1.6738,2.166 -1.984,-0.054 -3.9569,-0.087 -5.9199,-0.098 0.965,0.986 1.9517,2.0044 2.9277,3.0664 0.954,-0.44 1.9288,-0.8457 2.9258,-1.2207 -0.182,0.708 -0.5465,2.1328 -0.7285,2.8398 1.33,6.133 -0.193,12.2978 -1.791,18.2168 -0.279,-0.279 -0.8363,-0.8255 -1.1153,-1.1035 -2.7449,-0.279 -5.4668,0.022 -7.5898,1.9629 0.44,0.558 1.3188,1.694 1.7578,2.252 -2.916,0.804 -6.3809,0.2345 -8.8359,2.1855 l -0.01,18.6895 c 1.391,2.086 2.5731,1.323 14.1641,1.457 -0.708,2.37 -1.437,4.7386 -2.209,7.0976 -0.118,-0.976 -0.3664,-2.9263 -0.4844,-3.9023 h -2.6797 c -0.44,1.876 -0.8788,3.7739 -1.3828,5.6719 0.322,0.461 0.9759,1.3834 1.2969,1.8554 1.308,-0.043 2.6268,-0.054 3.9668,-0.043 -1.812,8.084 -1.6401,16.4694 -3.4531,24.5644 -4.525,21.235 -2.2131,21.5058 -3.2911,27.8438 -0.729,3.935 -0.8367,7.9568 -0.7617,11.9668 -0.89,-0.021 -2.6588,-0.064 -3.5488,-0.086 0.504,-1.115 1.0292,-2.1977 1.5762,-3.2597 -0.75,-1.233 -1.4898,-2.4548 -2.2188,-3.6348 0.332,-0.408 0.9971,-1.2343 1.3301,-1.6523 -0.429,-0.568 -1.3093,-1.6938 -1.7383,-2.2618 -0.365,0.354 -1.0822,1.0621 -1.4472,1.4161 -0.482,-1.18 -0.9648,-2.3376 -1.4258,-3.4746 -1.083,0.493 -2.1561,1.0082 -3.2071,1.5332 0,0.761 -0.02,2.2741 -0.02,3.0351 -2.798,-1.212 -5.6608,-2.2729 -8.6738,-2.6699 -4.806,-7.674 -0.07,-18.2379 -1.5332,-26.5059 1.115,-5.779 -0.14,-11.7725 1.457,-17.4765 -0.161,-0.365 -0.4816,-1.1038 -0.6426,-1.4688 1.072,-3.613 -0.6867,-7.2688 0.074,-10.8828 1.126,-5.564 0.7937,-11.2475 0.7187,-16.8555 -0.365,0.686 -1.1152,2.0484 -1.4902,2.7344 -2.273,-0.021 -4.5351,-0.021 -6.7871,0 -0.205,1.413 -12.929,70.833 -13.252,72.041 -3.581,-0.129 -7.118,-0.579 -10.582,-1.416 -0.021,-0.879 -0.055,-2.6376 -0.076,-3.5176 -2.359,1.48 -4.3098,3.4528 -5.7578,5.8438 -0.407,-0.354 -1.2209,-1.0611 -1.6289,-1.4141 -0.611,0.461 -1.8333,1.3713 -2.4453,1.8223 0.44,-0.997 0.9095,-1.9628 1.3925,-2.8848 -4.2989,-1.544 -0.7829,-6.4859 -0.8789,-9.6269 -1.501,0.976 -2.9794,1.9837 -4.4804,2.9707 0.07,-1.074 -2.6094,-64.1253 -0.2364,-72.7813 -0.29,-0.44 -0.8799,-1.3188 -1.1699,-1.7578 -0.729,0 -2.1648,-0.012 -2.8828,-0.022 -0.386,-2.831 0.9005,-6.4119 -1.4805,-8.5449 -2.466,-0.011 -4.8453,0.6745 -7.2363,1.1465 0.333,0.697 0.9857,2.1018 1.3067,2.7988 -1.748,-1.222 -3.4526,-2.4969 -5.1036,-3.7949 -0.611,-0.075 -1.8226,-0.2141 -2.4336,-0.2891 -0.943,1.801 -1.867,3.6243 -2.746,5.4903 -2.337,-0.011 -4.6743,-1e-4 -6.9903,0.043 -2.059,-4.879 -0.5689,-10.0374 0.2461,-14.9804 -2.67,-0.665 -5.3807,-1.1461 -8.0937,-1.4571 0.161,3.002 0.8143,5.9601 2.1113,8.7051 -0.461,2.498 -0.7499,5.0183 -0.9649,7.5703 -5.7259,1.876 -11.6874,-1.1897 -17.3164,1.0723 -0.45,-0.311 -1.3393,-0.9429 -1.7793,-1.2539 0,-3.378 8e-4,-6.7449 0.012,-10.0899 0.59,-0.472 1.7674,-1.3932 2.3574,-1.8652 -0.793,-0.708 -1.5854,-1.3831 -2.3574,-2.0371 -0.011,-2.058 -0.011,-4.0848 0,-6.0898 0.869,0.011 2.5949,0.02 3.4629,0.031 -0.29,2.101 -0.5801,4.2351 -0.9551,6.3691 0.407,0.354 1.2226,1.0516 1.6406,1.3946 -0.268,-5.243 2.2523,-10.5191 0.2793,-15.6231 0.643,-1.265 1.3186,-2.5077 2.0156,-3.7187 -0.461,-0.343 -1.373,-1.0086 -1.834,-1.3516 1.053,-8.504 0.3873,-11.8948 1.3203,-18.1738 -0.697,-2.906 -0.097,-5.8016 0.6543,-8.5996 h 3.0645 c -0.011,-1.705 -0.011,-3.3661 0,-4.9961 -1.533,-0.418 -3.2799,-0.2043 -4.5879,-1.1152 -0.815,-1.759 -1.0942,-3.6673 -1.5332,-5.4903 0,0 -0.2575,-15.8913 -0.3105,-37.6543 0.611,-0.021 1.8313,-0.055 2.4433,-0.076 -1.34,-1.833 -2.722,-3.6443 -4.041,-5.4453 0.697,0.375 2.0686,1.1243 2.7656,1.4883 -2.863,-4.986 -2.5416,-10.8931 -3.5176,-16.3711 1.866,-0.043 3.7534,-0.042 5.6504,-0.031 -0.482,-2.895 -0.8464,-5.7906 -1.1464,-8.6856 -1.094,0.761 -2.1546,1.5764 -3.2696,2.3164 -0.75,-0.879 -1.448,-1.7263 -2.209,-2.4883 4.535,-1.2859 4.6092,-7.678 0.1172,-9.039 0.407,1.297 0.8469,2.617 1.2969,3.957 -0.59,0.011 -1.7687,0.012 -2.3477,0.022 -0.043,-1.608 -0.075,-3.184 -0.1074,-4.75 -2.091,0.407 -4.1057,1.1033 -5.9707,2.1113 0.504,0.654 1.5319,1.973 2.0469,2.627 h -3.1426 c -0.461,1.437 -0.9003,2.905 -1.3613,4.373 0.826,-0.032 2.4777,-0.096 3.3027,-0.1289 -0.547,1.78 -1.0724,3.5703 -1.5664,5.4043 h -1.5215 c -0.257,-1.019 -0.7615,-3.0447 -1.0195,-4.0527 -0.214,1.876 0.086,3.7529 0.6113,5.5859 -0.804,0.89 -1.5873,1.8117 -2.3593,2.7656 0.793,0 2.3798,0.012 3.1738,0.012 0.397,0.386 1.1792,1.1569 1.5762,1.5429 -0.579,0.3 -1.726,0.911 -2.295,1.211 1.651,3.806 3.9881,7.5388 3.2481,11.9238 -0.697,-1.876 -1.2635,-3.7622 -1.8535,-5.6172 -0.343,3.892 -1.1577,7.7399 -2.3047,11.5039 1.426,0.407 2.8623,0.7932 4.3203,1.2442 -1.883,7.645 -2.1553,34.3421 -4.7383,48.4101 -0.397,-0.836 -1.1909,-2.5202 -1.5879,-3.3672 -1.908,1.469 -2.6168,3.6559 -2.7988,6.0039 3.345,0.021 6.6909,0.022 10.0469,0.033 l -0.021,1.0704 c -13.113,0.107 -26.2376,-0.2235 -39.3496,0.1835 0.675,0.933 1.4169,1.8547 2.2109,2.7657 5.222,0.675 10.624,0.5468 15.75,-0.7832 -0.011,0.525 -0.054,1.5863 -0.064,2.1113 -1.329,-0.021 -2.6379,-0.02 -3.9239,0.012 -1.264,3.014 -4.0362,9.1226 -3.6992,16.0606 -2.723,-0.011 -5.4469,-0.1817 -8.1269,0.2363 -1.919,1.019 -1.4053,3.345 -1.4903,5.168 0.412,6.603 2.3001,1.9757 10.8731,6.5937 -1.934,4.589 1.1562,9.1797 -0.2578,20.9727 -1.169,1.447 -3.1845,1.2533 -4.8145,1.6933 -0.557,1.018 -1.1144,2.0687 -1.6504,3.1406 -2.305,-0.2789 -5.0826,0.034 -6.1016,-2.6035 -0.933,0.74 -1.8743,1.4675 -2.7753,2.2715 -1.598,0.011 -3.1746,0.044 -4.7286,0.1192 -0.043,-0.643 -0.1288,-1.9313 -0.1718,-2.5743 -0.858,0.815 -1.705,1.6633 -2.541,2.5313 -5.211,0.354 -10.3789,-0.3547 -15.5469,-0.8047 -7.968,1.478 -33.2923,0.7432 -34.3653,0.7402 -0.021,-1.437 -0.031,-2.8416 -0.02,-4.2246 -5.854,0 -11.6882,-0.031 -17.5312,0.033 0.547,1.136 1.1163,2.2927 1.6953,3.4727 -0.686,0.6 -1.3402,1.2232 -1.9942,1.8672 -1.715,-0.515 -3.4519,-1.0188 -5.1679,-1.4258 0.804,0.901 1.6512,1.8866 2.4882,2.8516 -1.351,1.212 -3.4438,2.6047 -2.7148,4.7597 1.297,7.623 0.5258,15.386 0.7188,23.084 -0.536,-0.429 -1.5988,-1.2973 -2.1348,-1.7363 0.376,-15.245 -4.3166,-31.4949 -2.0586,-42.2539 -2.648,-0.365 -5.2637,-0.8168 -7.8477,-1.3848 2.657,18.783 1.2697,10.3126 1.5547,19.8906 0.503,6.396 1.1869,12.8541 0.5039,19.3731 0.948,9.6 -0.723,41.4573 1.168,51.9043 1.265,8.181 -1.0607,16.2777 -0.8887,24.4687 -2.884,0.515 -5.7903,1.1677 -8.6953,0.5567 0.054,0.472 0.1723,1.4264 0.2363,1.8984 3.656,-0.054 7.3004,-0.5141 10.8594,-1.4141 -0.986,1.479 -1.9393,2.9785 -2.8613,4.5235 -0.311,-0.247 -0.9234,-0.7276 -1.2344,-0.9746 -6.754,2.09 -9.6136,0.047 -19.6426,1.0937 -0.064,-1.383 -0.1171,-2.7459 -0.1601,-4.0859 3.678,1.126 7.4299,0.086 11.0859,-0.5684 -0.429,-0.515 -1.2761,-1.5543 -1.7051,-2.0683 -3.495,0.043 -6.9701,0.5038 -10.3691,1.3398 0.117,-28.602 -4.203,-36.2031 -7.666,-71.2891 1.179,0.504 2.3595,1.028 3.5605,1.586 0.536,-0.386 1.6308,-1.1472 2.1778,-1.5332 -1.061,-1.072 -2.1026,-2.1339 -3.1426,-3.1739 -0.397,-1.3399 -0.7925,-2.6697 -1.1895,-3.9667 l 1.5645,0.1621 c -0.675,-0.633 -1.3409,-1.245 -2.0059,-1.834 -0.622,1.49 -1.2525,3.0017 -1.8965,4.5136 -0.021,-1.6079 0.054,-3.1835 0.2247,-4.7265 1.158,-0.836 2.3802,-1.5563 3.6562,-2.1563 0.161,0.611 0.4816,1.8334 0.6426,2.4454 1.276,-1.78 2.6373,-3.4623 3.9883,-5.1563 -0.086,-0.3 -0.2558,-0.9117 -0.3418,-1.2227 0,-6.9789 -0.5315,-1.847 0.6855,-11.291 -0.611,0 -1.8333,0.012 -2.4453,0.012 0.172,-0.354 0.505,-1.0822 0.666,-1.4472 0.054,-1.351 0.032,-2.6705 0,-3.9785 -5.24,-0.795 -3.0011,-0.076 -7.82805,-0.043 -2.716,-2.882 -2.4619,-17.6336 -2.4219,-20.6406 0.536,0.429 1.6066,1.2663 2.1426,1.6953 -0.011,1.769 -0.021,3.5364 0,5.3594 0.418,-0.343 1.25475,-1.0291 1.67375,-1.3711 -0.99695,-4.482 1.5544,-9.0592 -0.5586,-13.3692 1.008,-1.051 2.0254,-2.0699 3.0664,-3.0449 -0.954,-2.337 -1.8865,-4.6542 -2.8515,-6.9492 0.843,-4.737 2.0661,-22.8778 1.2441,-28.7988 0.289,-1.126 0.5789,-2.2198 0.8789,-3.3028 1.437,-0.472 2.8955,-0.9328 4.3535,-1.3828 -0.386,-0.493 -1.1472,-1.4884 -1.5332,-1.9824 0.536,-1.126 1.0729,-2.2412 1.6309,-3.3242 -2.252,-0.054 -4.4822,-0.054 -6.7012,-0.043 -2.25095,-30.065 -0.78915,-24.9735 -1.20115,-44.9805 0.88995,-0.043 2.69005,-0.1164 3.58005,-0.1484 -0.493,-1.522 -0.9745,-3.0029 -1.4785,-4.4609 0.311,-0.397 0.9214,-1.189 1.2324,-1.586 -0.568,-0.407 -1.6937,-1.2228 -2.2617,-1.6308 -0.011,1.512 -0.011,3.0446 0,4.5996 l -0.90225,-0.053 c -0.44,-6.026 -0.964,-12.073 -2.336,-17.9589 1.308,-0.633 2.6373,-1.2238 3.98825,-1.7598 0.708,-0.622 1.4273,-1.222 2.1563,-1.791 -0.397,-1.833 -0.7513,-3.6765 -1.0723,-5.4785 -3.86795,1.239 -1.038,0.3747 -5.12495,1.0937 0.011,-0.718 0.042,-2.1755 0.062,-2.8945 0.965,-0.557 1.9512,-1.0839 2.94915,-1.5879 0.343,-1.608 0.7077,-3.1845 1.1367,-4.7285 -0.858,-0.89 -1.1259,-2.9914 -2.71285,-2.3594 -1.051,1.233 -1.3385,2.8647 -1.8535,4.3867 -0.354,-0.343 -1.0725,-1.03 -1.4375,-1.373 0.397,-1.383 0.771,-2.7772 1.168,-4.1172 -2.348,-0.032 -4.6952,-0.031 -7.0332,-0.01 0.493,1.909 1.0402,3.8161 1.5762,5.7461 -0.59,-0.44 -1.7694,-1.308 -2.3594,-1.748 -0.011,-1.372 -0.011,-2.7135 0,-4.0215 l -0.8574,0.012 c -0.214,3.227 -0.6983,6.4429 -1.4063,9.6269 0.868,0.011 2.6173,0.022 3.4863,0.033 -0.536,1.758 -1.0606,3.5377 -1.5546,5.3497 l -0.7403,0.012 c 0,-0.89 0,-2.6589 0.01,-3.5489 -0.568,0.439 -1.7035,1.3081 -2.2715,1.7481 0.054,1.909 0.032,3.8481 0.3106,5.7891 1.415,0.976 3.0328,1.6406 4.5878,2.4335 -0.836,0.011 -2.5194,0.022 -3.3554,0.022 -0.44,1.394 -0.8791,2.8201 -1.3301,4.2461 0.933,0.032 2.8092,0.086 3.7422,0.1074 -0.665,0.311 -2.0057,0.943 -2.6817,1.254 0.59,1.49 1.1708,2.9913 1.7598,4.5253 0.247,-1.126 0.7276,-3.3991 0.9746,-4.5351 0.525,2.327 0.075,4.6755 -0.6328,6.9375 -1.169,0.472 -2.3364,0.9652 -3.4844,1.4902 0.343,0.45 1.0184,1.3508 1.3614,1.8008 -0.493,1.254 -0.9643,2.5514 -1.4043,3.8594 1.447,0.601 3.1954,0.8791 4.3964,2.0371 0.846,5.607 -3.1596,41.568 -3.0996,51.166 h -2.0918 c -0.011,-1.962 -0.02,-3.9143 -0.01,-5.8223 -0.997,1.362 -1.9744,2.7557 -2.9824,4.1387 -1.072,3.731 -2.0257,7.494 -2.6797,11.332 -0.729,0.011 -2.1871,0.022 -2.9161,0.022 -0.011,1.211 -0.011,2.446 0,3.711 -1.212,0.354 -2.3913,0.8026 -3.5273,1.3496 -0.793,1.715 -1.1042,3.6254 -1.5762,5.4804 0.547,2.52 0.8051,5.104 0.9981,7.709 3.646,1.029 7.4401,1.1359 11.2031,1.2539 -0.901,1.083 -1.8117,2.1858 -2.7227,3.3008 -1.104,-1.491 -2.5616,-2.4229 -4.2226,-3.0449 l -0.1738,1.5019 c 0.675,0.107 2.0388,0.3315 2.7148,0.4395 -1.147,0.761 -2.2859,1.5449 -3.4219,2.3379 -0.504,1.93 -1.0492,3.8481 -1.6172,5.7891 3.238,1.34 6.7744,1.4371 10.1954,2.0371 -0.311,0.515 -0.9439,1.5543 -1.2539,2.0683 1.726,6.637 1.1373,13.7361 -0.5997,20.3301 -0.686,2.616 -3.7628,0.9006 -5.6718,1.0176 -1.104,0.193 -2.1983,0.419 -3.2813,0.666 -0.365,0.354 -1.1037,1.0718 -1.4687,1.4258 0.868,0.772 1.7584,1.5646 2.6484,2.3906 -2.991,0.461 -5.9604,1.0507 -8.9414,1.5547 0,7.077 -0.011,14.1535 0,21.2305 4.653,-0.097 9.3597,-0.2677 13.9707,0.6543 -0.901,2.863 -1.1374,6.4872 -4.4824,7.6132 0.375,-1.769 3.4524,-3.7008 1.5644,-5.3418 -1.362,-2.091 -3.8051,0.1506 -5.2851,0.9336 0.525,0.644 1.5543,1.9185 2.0683,2.5625 -0.418,0.515 -1.2643,1.5456 -1.6933,2.0606 5.893,7.223 6.1061,3.0331 1.2441,39.789 -5.645,3.09 3.0103,1.2221 -21.3047,1.0821 -4.868,0.064 -9.6515,-1.7686 -14.5195,-0.6856 -1.158,-0.204 -2.3269,-0.4076 -3.4629,-0.5586 -0.654,-1.64 -1.3404,-3.3009 -1.9844,-4.8769 -1.147,0.933 -2.2948,1.8436 -3.5058,2.7226 -1.801,0.064 -3.6026,0.1279 -5.3926,0.2129 -0.547,-1.126 -1.0827,-2.218 -1.5977,-3.291 -3.431,-0.011 -6.8619,-0.011 -10.2929,0 -0.021,1.415 -0.031,2.863 -0.031,4.332 -1.533,-0.075 -3.0563,-0.1069 -4.5683,-0.1289 -1.04,-1.019 -2.1009,-1.9935 -3.1739,-2.9375 0.257,-1.716 0.7827,-3.345 2.3477,-4.289 0.086,-3.024 0.1386,-6.0483 -0.1504,-9.0293 l -0.6855,-0.9532 c -1.651,-2.1549 -3.056,-4.4503 -4.375,-6.7773 -0.326,5.575 -0.6796,9.5854 -0.6856,9.6934 0.279,1.212 0.5557,2.4654 0.8457,3.7304 -7.034,-1.876 -14.3457,1.6195 -21.3047,-1.0605 2.284,-0.761 4.632,-1.3507 6.959,-1.9727 3.6438,0.5765 7.4142,0.8737 10.543,-0.2422 -0.4667,-0.389 -1.1092,-0.9294 -1.4824,-1.2382 l -0.3868,0.6757 c -1.737,-0.214 -3.5157,-0.3415 -5.1777,0.3125 -1.608,-0.793 -3.206,-1.6616 -4.793,-2.4335 1.758,-0.761 3.5045,-1.5335 5.2735,-2.2735 -2.627,-0.976 -5.3712,-1.5438 -8.1582,-1.7148 l 0.043,-0.5371 c 1.351,-0.418 2.7227,-0.7822 4.0957,-1.1582 -0.429,-1.823 -0.8254,-3.6439 -1.1894,-5.4239 1.051,-0.107 3.1306,-0.3122 4.1816,-0.4082 -1.308,-0.847 -2.6043,-1.6511 -3.9023,-2.4121 0.225,-0.3 0.6969,-0.9099 0.9219,-1.2109 -1.051,-3.281 -0.033,-6.626 0.4062,-9.875 -2.895,-0.633 -5.8113,-1.191 -8.7383,-1.502 -0.525,-0.954 -1.0402,-1.8976 -1.5332,-2.8086 -3.206,-0.708 -6.4748,-1.4254 -9.7558,-0.8144 -9.446,-0.804 -19.0099,-5.6292 -28.3809,-1.9082 -8.063,-1.608 -16.3401,0.2248 -24.4141,-1.2442 -0.343,0.193 -1.0195,0.5893 -1.3515,0.7813 -0.054,-0.74 -0.1606,-2.1975 -0.2246,-2.9375 -2.069,0.547 -3.7528,1.8012 -4.8028,3.6992 -0.257,-0.236 -0.7827,-0.7171 -1.0507,-0.9531 -2.423,0.729 -4.8032,1.5755 -7.1622,2.4765 0.525,1.008 1.0605,2.0487 1.6075,3.0997 0.45,-0.386 1.3507,-1.1597 1.8007,-1.5567 0.525,1.115 1.0519,2.2627 1.5879,3.4317 -1.544,-0.021 -3.0678,-0.011 -4.5898,0.021 -0.547,2.177 -1.06,4.3521 -1.5,6.5821 1.169,-0.536 2.3471,-1.0512 3.5371,-1.5332 0.011,0.879 0.043,2.6385 0.064,3.5175 -0.729,0.011 -2.1988,0.02 -2.9278,0.031 -0.354,0.89 -0.6973,1.8014 -1.0293,2.7344 0.343,1.19 0.6756,2.4035 1.0196,3.6465 0.901,0.086 2.679,0.246 3.58,0.332 -1.233,1.555 -2.5079,3.0773 -3.7949,4.6113 -0.054,1.083 -0.087,2.1863 -0.1191,3.3223 0.558,0.45 1.6734,1.3632 2.2304,1.8242 -0.043,0.493 -0.1386,1.4679 -0.1816,1.9609 -1.394,1.254 -2.7128,2.5838 -3.9668,4.0098 -1.705,0.011 -3.3997,0.044 -5.0937,0.098 -0.826,-0.869 -1.6616,-1.7163 -2.4766,-2.5313 -0.472,0.322 -1.4264,0.9651 -1.8984,1.2871 -3.56,-1.04 -7.2901,-1.0501 -10.9571,-0.9961 -0.568,1.072 -1.1046,2.165 -1.6406,3.291 -1.512,-0.032 -3.0132,-0.043 -4.4922,-0.022 -0.783,-0.7829 -1.5437,-1.5329 -2.3047,-2.2519 -7.182,4.919 -12.3188,-0.079 -29.2168,2.9277 -4.235,-0.954 -8.6192,-0.9009 -12.8652,-0.043 -2.391,-0.536 -4.8475,-0.59 -7.2285,-0.043 -1.19,-0.6 -2.3791,-1.1901 -3.5371,-1.7481 0.011,-2.691 0.032,-5.3605 0.043,-8.0195 0.847,-0.868 1.6948,-1.7267 2.5528,-2.5527 -0.708,-0.021 -2.1348,-0.054 -2.8418,-0.064 0.482,-0.622 1.4581,-1.8655 1.9511,-2.4765 0.783,1.329 1.5547,2.6272 2.3477,4.0312 0.622,-1.587 1.212,-3.1747 1.791,-4.7187 -1.812,-0.043 -3.612,-0.011 -5.414,0.022 0.886,-3.88 -1.6647,-27.4377 -1.5137,-31.1797 0.281,-28.086 -1.0606,-41.836 -1.0606,-41.836 -0.289,-6.808 0.3966,-13.5641 0.6426,-20.3301 0.6,-6.1649 -1.4798,-12.1573 -1.7578,-18.2792 -0.461,-6.38 -5.7035,-13.1023 -1.1035,-19.0743 -1.287,-0.322 -2.5631,-0.6121 -3.8281,-0.9121 0.643,-2.252 0.5242,-4.5567 -0.6758,-6.5937 -1.061,1.866 -1.77978,3.8926 -2.21878,6.0156 -0.482,0.461 -1.4581,1.371 -1.9511,1.832 0.59,3.86 1.65,7.796 0.707,11.709 -0.922,4.461 0.1823,9.2213 -1.5547,13.5313 -5.067,13.5629 -2.987,41.931 -8.084,53.4589 -0.332,-1.179 -0.6531,-2.3281 -0.9531,-3.4531 -0.45,0.783 -1.34,2.3276 -1.791,3.0996 0.536,0.525 1.0826,1.0831 1.6406,1.6621 -0.718,0.268 -2.1436,0.7928 -2.8516,1.0508 0.204,0.343 0.6105,1.0184 0.8145,1.3613 -0.054,1.115 -0.075,2.3171 -0.086,3.4961 -4.868,3.099 -7.4088,8.4712 -9.5528,13.6172 -3.592,2.981 -4.6438,7.8468 -8.0097,11.0528 0.343,0.365 1.0202,1.095 1.3632,1.4589 -0.729,0.815 -1.4482,1.6613 -2.1562,2.5293 -0.675,2.07 -1.3182,4.1923 -2.3692,6.1543 -1.683,1.394 -3.3997,2.7464 -5.0507,4.1934 -0.29,-0.311 -0.878,-0.9439 -1.168,-1.2539 -0.311,0.697 -0.9331,2.0913 -1.2441,2.7773 0.182,0.3 0.5667,0.8993 0.7597,1.1993 -1.265,1.437 -2.5085,2.9174 -3.6875,4.4394 -1.308,0.504 -2.6146,1.0187 -3.8906,1.5977 0.558,-1.233 1.1246,-2.4448 1.6816,-3.6348 -2.316,0.257 -4.632,0.5801 -6.916,0.998 0.059,-24.2019 -0.4993,-26.1185 1.8867,-31.3945 -0.279,-0.472 -0.8362,-1.4262 -1.1152,-1.9082 4.182,-0.558 8.4604,0.7724 12.5664,-0.6426 1.533,0.986 3.0557,2.0164 4.5566,3.1094 1.329,-0.021 2.6803,-0.022 4.0313,0.01 1.254,-0.943 2.5301,-1.8432 3.8281,-2.7012 0.032,-0.611 0.087,-1.8333 0.1192,-2.4453 -1.061,-0.568 -2.1024,-1.1034 -3.1524,-1.6074 0.011,-3.367 -0.011,-7.3129 -3.4531,-9.0489 0.064,2.756 0.4285,5.5312 1.1035,8.2442 -3.367,0.911 -6.8724,1.5123 -10.3144,0.6543 -0.3,0.118 -0.9019,0.3546 -1.2129,0.4726 -5.919,-1.158 -11.7179,-4.2041 -17.8828,-2.7461 -1.608,-0.214 -3.2168,-0.4293 -4.8028,-0.5683 -0.021,1.63 -0.032,3.2821 -0.043,4.9551 -0.718,-1.061 -1.4376,-2.1119 -2.1446,-3.1309 0.3,-0.343 0.9117,-1.0078 1.2227,-1.3398 -0.472,-0.354 -1.406,-1.0523 -1.877,-1.4063 1.179,-5.65 0.4398,-11.43 0.6758,-17.123 -0.204,-2.273 1.5543,-3.8904 2.5723,-5.6914 -0.622,0.375 -1.8641,1.1367 -2.4961,1.5117 -0.675,-3.41 -0.7846,-7.0123 -2.3496,-10.1543 0.365,1.544 0.3125,3.0978 -0.1485,4.6738 -1.437,-0.987 -1.201,-3.0561 -0.375,-4.2891 0.722,-0.531 0.3612,-0.2219 2.2832,-2.0039 l -2.5527,1.0391 c 3.077,-5.283 1.4137,-42.0586 2.2187,-54.8086 1.598,-8.353 0.3555,-16.8674 1.1055,-25.2734 -0.289,-4.846 1.1247,-9.6072 0.8457,-14.4532 -0.257,-7.1939 0.5475,-14.4522 -0.7715,-21.5722 -0.922,-7.076 0.095,-14.216 -0.4726,-21.293 -1.447,-9.671 -1.3382,-19.4932 -1.1992,-29.2402 -6.323,8.716 -1.7108,0.7722 -6.4668,25.2402 -2.713,1.971 -4.9578,29.9532 -5.0918,31.9512 -0.043,4.578 -2.81,8.7911 -1.834,13.4551 -1.084,11.5339 1.112,9.0983 -1.961,35.8222 0.163,0.669 -0.4851,31.754 -1.2011,35.586 -1.555,10.667 1.7458,9.5269 -2.6602,29.7968 -1.565,0.836 -3.1303,1.6511 -4.6953,2.4981 1.233,-1.415 2.5194,-2.7664 3.8164,-4.1074 -0.354,-0.386 -1.0608,-1.1687 -1.4258,-1.5547 -1.265,-0.043 -2.5301,-0.054 -3.7851,-0.043 -0.15,2.863 -0.3652,5.7464 -0.7832,8.6094 0.934,3.862 0.4793,53.496 0.6543,61.084 -2.252,0.761 -4.5994,1.0616 -6.8614,0.1816 -0.375,0.279 -1.1269,0.8355 -1.5019,1.1035 -1.00501,-3.831 1.3898,-5.135 -5.6172,-5.875 l -0.0117,-0.7617 c 0.643,0 1.90902,0.012 2.54102,0.012 -6.76599,-4.696 -12.66208,-10.4754 -18.20508,-16.5234 -0.954,-1.437 -1.2975,-3.1518 -1.8125,-4.7168 -1.297,0.397 -2.60362,0.7719 -3.89062,1.2109 -0.021,-0.643 -0.0659,-1.9185 -0.0879,-2.5625 4.96399,-0.171 9.86563,0.5784 14.76562,1.2754 -1.608,-4.299 -6.50908,-3.2605 -10.08008,-4.3965 1.791,-1.426 3.65601,-2.7557 5.5,-4.0957 -0.665,-0.097 -1.9932,-0.2682 -2.6582,-0.3652 v -2.6582 c -1.104,-0.547 -2.19825,-1.0722 -3.28125,-1.5762 0.032,0.611 0.0852,1.8333 0.11719,2.4453 -1.362,-0.826 -2.7115,-1.6088 -4.0625,-2.3808 -0.858,1.265 -1.72671,2.5418 -2.59571,3.8398 0.461,-2.841 1.06046,-5.6414 1.56446,-8.4394 18.23598,3.895 14.03009,7.1119 26.20508,7.8379 -0.525,-2.391 -0.80433,-4.8246 -0.98633,-7.2266 -1.169,-0.332 -2.33638,-0.6429 -3.48438,-0.9219 -1.565,0.557 -3.05723,1.5012 -4.74023,1.6192 -5.082,-1.93 -9.60665,-5.1037 -14.80664,-6.7657 -0.45,-0.29 -1.3625,-0.8689 -1.8125,-1.1699 -2.069,-0.654 -3.7618,-1.9299 -4.7168,-3.8809 5.779,0.922 11.62234,1.4912 17.48633,1.2012 0.515,0.943 1.03894,1.919 1.58594,2.916 1.88699,0.365 3.77439,0.8046 5.65039,1.3086 0.45,-0.322 1.3625,-0.9651 1.8125,-1.2871 0,-1.458 0.0102,-2.884 0.0312,-4.289 2.294,0.3 4.61125,0.6745 6.90629,1.1035 0.15,-2.091 1.5316,-4.8671 -0.8594,-6.1211 -23.59899,2.812 -15.09584,-2.3958 -21.88283,1.9512 -2.359,0.064 -4.71646,0.086 -7.06445,0.1289 -0.847,-0.987 -1.70646,-1.9308 -2.56446,-2.8418 -0.096,0.976 -0.31097,2.9478 -0.41796,3.9238 -0.654,0 -1.96124,-0.01 -2.61524,-0.01 -6.53199,-11.175 -15.91874,-30.6537 -23.80273,-43.5117 -0.107,-0.525 -0.33146,-1.5638 -0.43946,-2.0898 -1.34,-1.78 -2.63975,-3.5714 -3.96875,-5.3184 -0.086,-0.525 -0.25579,-1.5863 -0.34179,-2.1113 -3.881,-5.436 -7.43049,-11.2051 -9.89649,-17.4121 -0.397,-0.429 -1.17845,-1.2871 -1.56445,-1.7051 -1.254,-4.557 -1.46866,-9.2742 -1.59766,-13.9492 -2.294,0.343 -4.56931,0.7719 -6.82031,1.2539 -0.504,3.86 -0.14881,7.837 2.99219,10.582 -0.289,-3.431 -0.96517,-6.7963 -1.20117,-10.1953 3.03399,3.774 2.18701,8.749 2.16601,13.2519 -0.343,-0.708 -1.02881,-2.1035 -1.38281,-2.8105 -1.33,0.793 -2.65952,1.5761 -3.97852,2.4121 0.011,1.222 0.0203,2.4779 0.0312,3.7539 0.536,0.397 1.59877,1.1897 2.13477,1.5977 -2.305,4.525 -5.10349,8.9207 -6.27149,13.9277 0.387,2.478 8.47168,23.8178 10.38868,26.2578 0.086,1.169 0.17353,2.3588 0.26953,3.5918 -0.558,-0.054 -1.66371,-0.1484 -2.22071,-0.1914 -1.21199,1.823 -0.81331,3.9127 -0.32031,5.9277 -2.262,0.375 -4.52634,0.677 -6.77734,1.084 1.276,0.311 2.57309,0.6322 3.87109,0.9532 0,0.654 7.2e-4,1.9631 0.0117,2.6171 0.504,0.386 1.52311,1.1685 2.03711,1.5645 0.997,-0.579 2.00444,-1.1256 3.02344,-1.6406 0.579,3.313 1.21186,6.6252 1.63086,9.9922 -16.21399,-2.769 -11.14467,-0.6622 -25.34766,-2.4122 -6.62199,-4.0959 -1.28321,-2.6037 -24.24219,-2.9257 v -0.7207 c 2.713,-0.557 5.41571,-1.2215 8.09571,-1.9395 -1.458,-0.461 -2.89504,-0.9108 -4.33204,-1.3398 -0.536,0.247 -1.60853,0.7295 -2.14453,0.9765 0.836,-2.509 1.8435,-4.953 2.9375,-7.334 -1.437,-0.697 -2.87231,-1.3514 -4.32031,-1.9414 -0.097,0.793 -0.29072,2.3791 -0.38672,3.1621 -2.252,3.313 -4.62024,6.5953 -7.74023,9.1582 -25.08898,0 -3.34583,0.099 -33.9668,1.1036 -3.002,-0.118 -5.53446,1.6626 -8.06445,3.0136 -0.44,-2.584 -2.29429,-1.7473 -3.98829,-0.9433 -0.461,-0.332 -1.38275,-1.0079 -1.84375,-1.3399 -0.493,-8.138 1.10488,-16.5022 -0.95312,-24.4472 -3.152,1.276 -6.29572,2.5732 -9.51172,3.6562 -0.429,0.461 -1.27536,1.3828 -1.69336,1.8438 -0.343,-0.279 -1.02809,-0.8578 -1.37109,-1.1368 -0.997,0.697 -1.99519,1.4163 -2.99219,2.1563 -0.332,-0.289 -1.00661,-0.8797 -1.34961,-1.1797 -0.407,0.482 -1.22286,1.4584 -1.63086,1.9414 -2.884,0.933 -5.73655,1.9734 -8.68555,2.6914 -8.34199,-6.465 -15.59897,-14.2295 -22.04296,-22.5605 -0.043,-0.547 -0.1184,-1.6618 -0.15039,-2.2188 -1.126,-0.868 -2.23016,-1.7358 -3.41016,-2.4648 -10.38999,10.125 -19.72365,38.1323 -42.64063,14.8594 -0.054,-0.59 -0.15107,-1.7682 -0.20507,-2.3692 -13.82499,-15.323 -20.34602,-39.754 -23.79102,-45.707 -2.927,0.515 -4.00978,3.8588 -5.80078,5.8848 -2.048,3.3349 -5.25386,5.587 -8.25586,8 -21.14298,4.1169 -21.79193,-7.7552 -31.54492,-17.4122 -0.097,-0.525 -0.27923,-1.5882 -0.36523,-2.1132 -5.307,-7.655 -9.24223,-16.1258 -13.19922,-24.5098 -14.77899,19.592 -26.16946,24.5406 -31.18946,27.9746 -0.997,0.118 -1.98347,0.2675 -2.98046,0.4395 -10.30399,7.484 -25.38945,3.592 -33.39844,-5.543 -0.729,-0.021 -2.19946,-0.053 -2.93946,-0.074 0.365,0.986 0.72875,1.9817 1.09375,3.0117 -0.568,2.573 -0.81361,5.2016 -0.97461,7.8496 -1.20099,-0.729 -2.39079,-1.4165 -3.59179,-2.1035 -0.558,0.257 -1.68296,0.7615 -2.25195,1.0195 2.02999,10.745 -1.72283,39.7112 -1.67383,51.7012 -1.051,-0.515 -2.10258,-1.0182 -3.14258,-1.4902 0.161,-0.354 0.48158,-1.0601 0.64258,-1.4141 -0.686,-4.374 -0.56752,-8.813 -0.72852,-13.209 -0.954,0.686 -1.86514,1.436 -2.74414,2.25 -0.429,4.621 -0.54786,9.2848 -1.63086,13.8418 -1.115,-0.558 -2.22898,-1.1041 -3.33398,-1.6191 -0.498,2.822 -0.16067,18.3136 -0.13867,19.5586 -1.158,4.632 0.66364,9.2295 0.55664,13.8945 -0.009,1.073 0.001,40.6389 -0.375,43.3379 0.70299,8.929 0.55042,23.1532 0.10742,27.0742 -0.879,2.337 -3.33452,0.8998 -5.10352,0.7598 -0.375,0.472 -1.11523,1.4264 -1.49023,1.8984 -7.64499,-2.294 -15.62193,-2.7345 -23.54492,-2.1875 -0.944,0.719 -1.90826,1.4165 -2.90625,2.1035 -1.094,-0.836 -2.14435,-1.6952 -3.15235,-2.5742 -2.54204,1.3632 -3.08056,1.9413 -4.23828,2.793 -0.33542,-0.6395 -0.98501,-1.8777 -1.31445,-2.5039 -1.19,0.021 -2.37178,0.087 -3.55078,0.1718 -1.297,1.319 -2.62683,2.6166 -3.92383,3.9786 0.311,-1.329 0.65505,-2.6289 0.99805,-3.8829 -0.965,-0.45 -1.92954,-0.8791 -2.89454,-1.2871 -1.42599,1.49 -2.81036,3.0454 -4.19336,4.6114 -0.568,-1.19 -1.12464,-2.3589 -1.68164,-3.5059 -0.675,-0.021 -2.00492,-0.063 -2.66992,-0.074 -0.611,1.179 -1.2125,2.4015 -1.8125,3.6445 -0.986,-0.686 -1.9615,-1.3506 -2.9375,-1.9726 0.772,-0.386 2.32566,-1.1685 3.09766,-1.5645 -1.844,-0.075 -3.67749,-0.064 -5.52149,-0.053 -0.868,0.825 -1.7377,1.6815 -2.5957,2.5605 -0.021,-0.9 -0.0415,-2.722 -0.0625,-3.623 -0.686,-0.011 -2.08158,-0.012 -2.76758,-0.012 l -1.88672,2.1875 c -1.04,-0.064 -2.07914,-0.096 -3.11914,-0.096 -1.87599,-4.675 -6.10239,0.1377 -8.52539,1.6817 0.354,-0.622 1.04177,-1.8429 1.38477,-2.4649 -2.895,-0.676 -5.7691,-1.3939 -8.6211,-2.2089 -1.58699,1.329 -3.08815,2.7878 -4.53515,4.2988 -0.654,-2.938 -3.92371,-3.0336 -4.8457,-0.2246 -4.139,0.193 -8.32006,0.1922 -12.37305,-0.7188 0.407,-0.751 1.23239,-2.2402 1.65039,-2.9902 -1.651,0.482 -3.24877,1.1785 -4.38477,2.5625 -1.233,0.032 -2.45473,0.096 -3.67773,0.1816 0.407,-0.558 1.21214,-1.6734 1.61914,-2.2304 -1.265,0 -2.52892,0.033 -3.79492,0.098 -0.976,3.066 -3.91454,1.3075 -6.14453,1.1895 -3.131,-0.697 -6.0374,1.0193 -8.90039,2.0273 0.365,0.418 1.09498,1.2656 1.45898,1.6836 3.978,-0.954 8.14827,-1.0514 12.07227,0.2246 0.365,-0.161 1.09498,-0.492 1.45898,-0.664 4.16,0.6 8.44947,-0.2257 12.48047,1.4043 0.354,0.021 1.06078,0.075 1.42578,0.096 4.986,1.094 9.93907,-1.2647 14.91406,-0.2247 5.125,0.976 10.37891,0.2902 15.50391,1.2442 1.598,-0.182 3.18325,-0.3327 4.78125,-0.4297 5.01799,-0.096 9.93832,1.0086 14.94531,1.2656 4.761,-0.847 9.47927,0.4511 14.19727,0.9121 0.761,0.654 1.5212,1.3389 2.2832,2.0469 3.678,-2.541 8.19329,-2.8715 12.36328,-1.4355 -0.289,0.493 -0.87992,1.5011 -1.16992,1.9941 0.801,4.963 -0.24822,2.8302 1.05078,10.0352 -9.59599,-1.072 -18.64457,2.7222 -28.10156,3.4082 0.525,2.048 0.99678,4.1187 1.42578,6.2207 -3.935,0.021 -7.85921,0.02 -11.7832,0.031 -0.407,-1.437 -0.81443,-2.8086 -1.23243,-4.1816 0.59,-0.418 1.77915,-1.2541 2.36915,-1.6621 -0.622,-2.606 -1.53221,-5.1147 -2.65821,-7.5157 -2.68,0.611 -5.26616,1.5218 -7.78515,2.6368 -0.611,-2.005 -1.8978,-2.3696 -3.5918,-1.3516 -0.418,2.155 -0.90952,4.3106 -1.47852,6.4766 1.651,1.362 3.62397,1.1886 5.54297,0.5566 -0.054,2.091 -0.0986,4.1919 -0.14062,6.3359 -3.045,-0.236 -6.0776,-0.6531 -9.0586,-1.3281 -0.793,2.112 -1.6505,4.2242 -2.5625,6.3262 -30.93897,2.625 -45.37779,10.0629 -55.17578,7.7949 -0.954,0.44 -1.8988,0.932 -2.84179,1.457 V 580.668 H 1840.8064 V 0 h -165.3653 c 0.1179,0.5533 0.047,1.1477 0.2188,1.6914 0.193,2.959 0.1719,5.9512 0.1719,8.9532 l 0.666,-0.064 c 0.343,-0.665 1.0405,-1.9844 1.3945,-2.6484 0.032,1.49 0.075,2.9911 0.1289,4.5351 -2.52,-0.129 -4.6863,1.3618 -4.5683,4.0528 1.04,0.933 2.1115,1.93 3.1836,2.916 0.3109,1.179 0.6763,2.3693 1.0723,3.5703 -0.826,1.072 -1.5991,2.187 -2.3281,3.334 1.801,0.257 3.689,0.5472 5.459,1.2012 10.702,0.741 4.4541,1.1169 18.9551,2.6269 2.2409,0.997 5.2329,0.204 7.0019,2.209 -0.011,5.382 1.1036,10.7217 0.1815,16.0937 0.9221,2.327 1.2647,4.8461 1.9728,7.2911 -0.577,-0.045 -1.7355,-0.1309 -2.3145,-0.1739 0.3109,0.418 0.9332,1.2346 1.2442,1.6426 -0.279,0.643 -0.8355,1.9293 -1.1035,2.5723 -2.402,-1.297 -5.1448,-0.9972 -7.7188,-0.7832 -3.099,1.576 -6.6911,0.7491 -9.9941,0.9101 -0.761,-0.847 -1.5008,-1.6811 -2.2188,-2.4961 -0.332,-1.405 -0.5158,-2.9168 -1.6738,-3.8398 -1.587,-0.236 -3.1828,-0.2463 -4.7168,0.012 -1.833,1.115 -1.3402,3.345 -1.5762,5.168 0.997,0.075 2.9903,0.2238 3.9883,0.2988 -1.276,0.826 -2.5509,1.6505 -3.7949,2.5195 0.021,6.358 -0.2056,12.728 0.1484,19.086 1.866,2.069 -0.8577,4.6094 0.7403,6.7754 0.011,1.286 0.033,2.5962 0.055,3.9472 -1.008,1.126 -1.029,2.2942 -0.086,3.4942 -0.257,0.343 -0.7828,1.031 -1.0508,1.373 -0.665,0.118 -1.9846,0.3635 -2.6386,0.4805 1.212,0.547 2.4771,0.5253 3.7851,-0.053 0.365,0.45 1.095,1.3625 1.459,1.8125 -1.748,0.021 -3.4747,0.086 -5.1797,0.1933 1.919,2.273 4.3414,4.0516 6.4434,6.1856 1.394,0.043 2.8206,0.1078 4.2676,0.2148 1.437,0.611 2.9057,1.191 4.3847,1.834 3.058,0.362 11.8446,2.3286 15.5996,4.5566 -0.021,0.783 -0.075,2.3479 -0.096,3.1309 -2.091,-0.021 -4.159,-0.022 -6.207,-0.012 -0.879,1.415 -1.7265,2.8642 -2.5625,4.3222 -5.222,-0.043 -10.4328,-0.032 -15.6328,-0.022 -0.214,-1.7479 -0.4503,-3.4735 -1.1153,-5.0605 0.622,-0.622 1.2652,-1.201 1.9512,-1.748 -0.021,-1.211 -0.021,-2.3928 0,-3.5508 -0.418,-0.375 -1.2434,-1.125 -1.6504,-1.5 -2.412,1.211 -5.3086,3.3563 -2.7246,6.1543 -0.129,1.898 0.7937,4.4494 -1.3613,5.5644 -9.893,0.8 -13.3381,-1.1496 -21.4981,1.6934 -2.101,0.601 -5.3171,1.4589 -6.0351,-1.4141 5.447,-5.318 -3.6347,-13.0588 1.4473,-18.2168 4.1599,-0.396 8.3519,-0.086 12.5449,-0.1504 -0.021,-0.89 -0.065,-2.69 -0.076,-3.58 -1.297,0.408 -2.5839,0.8246 -3.8379,1.2636 -9.618,0.44 -19.2465,-0.075 -28.8535,0.2793 1.565,1.201 3.2071,2.3172 4.8691,3.4532 -0.021,1.9619 -0.01,3.9557 0.022,5.9707 -2.123,0.654 -4.2891,1.1155 -6.4551,1.4375 l 0.01,-1.3184 c 1.426,-0.021 2.8852,-0.021 4.3652,0 -0.053,-0.622 -0.1725,-1.8761 -0.2265,-2.4981 -0.643,0.332 -1.9293,0.9962 -2.5723,1.3282 -0.804,0 -2.4023,0.012 -3.1953,0.022 1.019,-2.873 4.3957,-3.239 7.0117,-3.336 l -0.053,-1.039 c -1.7581,0.118 -3.5182,0.2568 -5.2012,0.6328 l -0.4825,0.3222 c -0.804,-0.59 -1.414,-1.3412 -1.832,-2.2422 -0.429,-7.1729 1.1366,-14.6233 -0.9864,-21.5703 1.726,1.019 3.4532,2.0792 5.2442,3.0762 0.011,-1.962 0.043,-3.882 0.086,-5.791 h -3.1425 c -0.086,0.675 -0.2578,2.0164 -0.3437,2.6914 -1.619,-0.911 -3.377,-1.94 -3.002,-4.041 1.297,-1.383 1.2978,-3.2183 0.2578,-4.6973 0.279,-0.375 0.846,-1.1355 1.125,-1.5215 1.201,0.729 2.4233,1.4578 3.6563,2.2188 1.136,-0.847 2.3369,-1.6183 3.4199,-2.5293 0.161,-1.533 0.1496,-3.0569 0.2246,-4.5469 -1.072,-0.976 -2.0896,-1.93 -3.0976,-2.873 0.986,-1.941 0.8671,-4.1381 0.9961,-6.2071 -0.675,0.054 -2.0477,0.1492 -2.7227,0.2032 -1.265,0.922 -2.5721,1.759 -3.9121,2.541 1.019,-3.313 1.3287,-6.7748 1.2207,-10.2168 0.375,0.021 1.1472,0.053 1.5332,0.074 0.654,2.187 2.9907,2.6812 4.8027,3.6562 -0.525,-1.533 -1.5649,-3.1201 -0.043,-4.4921 -1.598,-1.533 -3.3019,-3.4851 -5.3399,-1.3301 0.021,-2.37 0.033,-4.7294 0.055,-7.0664 -0.879,-0.89 -1.726,-1.7565 -2.541,-2.6035 3.688,-0.021 7.3981,-0.011 11.1191,0 v -2.0059 c -1.994,-0.086 -3.9345,-0.2786 -5.8535,-0.6856 -1.18,0.139 -2.3166,0.5782 -3.4746,0.5782 -1.176,-1.263 -1.2434,-2.361 -2.7344,-6.293 0.708,-0.107 2.1241,-0.3324 2.8321,-0.4394 1.426,-1.062 3.1078,-0.7085 4.6308,-0.064 0.611,-0.279 1.8448,-0.8362 2.4668,-1.1152 -0.021,-1.222 -0.021,-2.4111 0,-3.5801 -0.536,-0.429 -1.6202,-1.2656 -2.1562,-1.6836 -0.021,1.501 -0.021,3.0348 0,4.5898 -2.777,-0.45 -6.5288,1.1685 -8.4258,-1.4375 -0.322,-2.927 -0.1511,-5.8647 -0.2481,-8.7597 -1.083,0.525 -2.0799,1.1679 -3.0019,1.9179 -0.279,2.745 -0.1282,5.5219 -0.1172,8.2989 -3.399,0.118 -6.7991,-0.074 -9.9941,-1.2637 0.3,1.501 0.7619,3.0232 1.5449,4.4062 1.598,-1.34 3.0009,-1.34 4.2129,0 1.447,-0.965 3.1211,-1.1257 4.8691,-1.1367 -1.019,1.18 -2.1118,2.3042 -3.1738,3.4512 0.493,0.74 1.4679,2.2105 1.9609,2.9395 -0.847,0.043 -2.5512,0.1384 -3.4082,0.1914 -1.029,-1.608 -2.0361,-3.195 -3.0761,-4.75 -0.622,1.533 -1.2238,3.1112 -1.8028,4.6972 -1.362,-0.021 -2.7005,-0.021 -4.0195,0 l 0.053,0.6426 c 0.686,0.386 2.0601,1.1474 2.7461,1.5234 1.844,-0.086 3.817,0.042 5.5,-0.9453 1.104,0.772 2.1972,1.6421 3.0332,2.7891 -0.686,0.096 -2.0484,0.2897 -2.7344,0.3867 -0.011,2.948 0,5.9174 -0.02,8.8984 -1.694,-1.641 -3.3466,-3.3126 -4.9765,-4.9746 -0.525,0.75 -1.0181,1.5547 -1.4571,2.3907 1.372,3.217 3.5497,6.0266 5.9297,8.5996 -1.212,0.976 -2.4889,1.8539 -3.7539,2.7539 -0.011,1.705 -0.011,3.4099 0.043,5.1679 1.758,-0.997 3.4842,-2.0594 5.2422,-3.0664 -1.405,3.27 -1.0384,6.8735 -0.9844,10.3575 -1.662,-1.469 -3.4523,-3.376 -5.4473,-1.211 0,1.415 0.01,2.8506 0.031,4.3086 2.262,-1.297 4.8042,-3.2263 7.3672,-1.3613 l 1.2421,-1.2441 c 0,4.0419 -0.011,8.0844 0,12.1484 -0.793,0 -2.3893,0.012 -3.1933,0.022 -0.021,2.595 -0.032,5.2109 -0.1934,7.8379 -2.264,5.228 -0.3387,9.5457 0.2793,13.5957 -3.217,-0.064 -6.5846,0.4611 -9.5976,-0.8789 -0.311,0.322 -0.9215,0.9526 -1.2325,1.2636 -0.021,-2.402 -0.01,-4.7814 0.033,-7.1504 0.89,0.365 1.7995,0.7605 2.7325,1.1895 0.697,-0.3 2.1028,-0.9214 2.7988,-1.2324 -0.568,-0.579 -1.0934,-1.1139 -1.6074,-1.6289 -1.833,2.027 -3.4104,-0.2577 -4.9434,-1.2657 1.233,-1.769 0.9848,-3.8182 -0.1191,-5.5332 2.412,-0.74 5.3184,0.7095 7.0234,-1.8105 -6.358,-0.236 -12.7165,-0.064 -19.0644,-0.1074 l 1.6738,2.1445 c 2.026,-0.021 4.0743,-0.021 6.1543,0 -0.3,12.66 -2.1669,11.8884 -3.5059,21.4434 -2.97,-0.021 -5.9292,-0.011 -8.8672,0.086 -0.622,0.343 -1.8767,1.0078 -2.5097,1.3398 -0.74,2.252 -1.4566,4.5884 -0.02,6.7754 3.002,1.694 6.5077,3.2609 7.8907,6.7129 -3.9781,-0.483 -8.0754,0.9101 -11.9024,0.2031 -0.204,0.193 -0.6104,0.569 -0.8144,0.752 -2.198,-1.18 -4.7277,-0.8579 -7.0977,-0.9219 -0.043,-1.265 -0.075,-2.5097 -0.086,-3.7207 -0.665,-1.051 -1.3195,-2.0914 -1.9414,-3.1094 -0.161,-1.083 -0.3,-2.1438 -0.418,-3.1738 -1.297,-3.002 -1.1687,-6.4863 0.2363,-9.4023 l -0.9648,0.1816 -0.2578,1.7149 c -0.375,-0.836 -1.1472,-2.4983 -1.5332,-3.3243 -1.383,1.587 -3.119,2.7986 -4.545,4.3536 0.161,-5.404 -1.2118,-11.2032 0.7832,-16.3282 0.086,-2.198 0.4174,-4.5348 -0.8046,-6.4648 -0.054,-1.33 -0.054,-2.6288 0,-3.8828 1.051,-1.641 0.8579,-3.5916 0.8359,-5.3926 -0.322,-1.062 -0.6765,-2.0914 -1.0625,-3.0664 2.984,-3.748 -0.4447,-36.7963 2.0703,-41.2363 0.193,-2.755 0.193,-5.5114 0,-8.2344 -1.319,-2.091 -1.254,-4.7269 0,-6.7969 0.225,-3.592 0.1602,-7.1741 0.1602,-10.7441 0.536,-0.418 1.6085,-1.2637 2.1445,-1.6817 -0.021,1.522 -0.021,3.0649 0,4.6309 l 1.0625,-0.086 c -0.037,-2.8229 -0.2076,-5.6341 -0.3809,-8.4454 z M 896.02515,254.0332 c 0.083,0.07 0.1989,0.1654 0.2656,0.2207 l 0.023,-0.2988 c -0.092,0.037 -0.1956,0.045 -0.289,0.078 z m 0.289,-0.078 c 0.589,-0.2352 1.3351,-0.1152 1.8516,-0.5058 l -1.7676,-0.5684 z M 1555.7478,2.0001 c -0.011,3.217 -0.011,6.4339 0,9.6719 l -1.0723,0.055 c -0.011,-3.227 -0.011,-6.4444 0,-9.6504 z m -3.1739,46.92 c -0.064,1.308 -0.1066,2.6372 -0.1386,3.9882 -0.343,0.686 -1.0308,2.0477 -1.3848,2.7227 l -0.6641,0.043 c -0.032,-1.716 -0.033,-3.3986 -0.012,-5.0606 0.547,-0.418 1.6522,-1.2643 2.1992,-1.6933 z m 63.709,4.8789 c 1.297,1.04 2.4656,2.3583 3.2696,3.9023 -1.737,0.032 -3.463,0.054 -5.168,0.086 0.601,-1.3619 1.2334,-2.6912 1.8984,-3.9882 z m 10.3477,4.4922 c 3.763,0.976 2.8948,5.0278 3.9668,7.9218 -1.04,0.397 -2.0472,0.8259 -3.0332,1.2969 0.096,-3.119 0.1704,-6.2807 -0.9336,-9.2187 z m 80.2969,2.5937 v 2.209 c -0.536,0.032 -1.6086,0.098 -2.1446,0.1191 -0.021,1.383 -0.021,2.7772 0,4.2032 0.879,0.021 2.6376,0.064 3.5176,0.086 -0.365,0.836 -0.7083,1.694 -1.0293,2.584 1.221,2.755 0.8472,5.8323 0.1602,8.6953 0.515,1.03 0.2675,2.1018 -0.021,3.1738 -0.15,3.141 -0.836,6.2603 -0.332,9.4453 0.719,1.072 1.0071,2.2626 0.8671,3.5606 -1.522,2.359 -4.6215,1.4259 -6.8515,0.8789 -2.198,0.472 -4.4373,0.6308 -6.6563,0.6308 -3.547,-8.2309 -0.3191,-10.85 -3.4961,-14.625 -0.139,-3.367 -0.1177,-6.7116 -0.096,-10.0566 0.536,-0.021 1.6086,-0.073 2.1446,-0.1055 l 0.031,-1.0097 c -0.547,-0.011 -1.6307,-0.032 -2.1777,-0.043 -0.011,-2.434 -0.021,-4.8353 -0.043,-7.2363 0.987,-0.718 1.8452,-1.7363 3.0352,-2.1543 2.273,0.579 4.5992,0.976 6.9902,0.75 1.833,-1.137 4.0106,-0.9775 6.1016,-1.1055 z m -150.9434,13.3926 c 2.423,-1.029 2.4113,4.5134 -0.012,3.4844 -0.6969,-1.19 -0.6853,-2.3584 0.012,-3.4844 z m 3.8262,31.1035 c 0.644,1.137 0.6557,2.2944 0.012,3.4844 -2.445,1.029 -2.4777,-4.5344 -0.012,-3.4844 z m -36.1114,2.7988 c -0.911,2.412 -1.2956,4.9526 -1.3496,7.5586 l -0.9121,-0.053 c -0.011,-2.519 -0.011,-5.0172 0,-7.4942 0.568,-0.011 1.6937,-0.012 2.2617,-0.012 z m 25.0997,5.211 c -0.932,1.705 -2.0354,3.3244 -3.1934,4.9004 -0.643,-0.89 -1.2343,-1.758 -1.7813,-2.627 0.579,-2.273 3.0987,-2.2094 4.9747,-2.2734 z m -1029.18751,5.3183 c 0.343,0.74 1.02809,2.219 1.37109,2.959 0.075,2.595 0.0971,5.2109 0.11914,7.8379 -5.92299,0.988 -1.52074,0.7288 -8.05273,1.3398 0.955,-3.152 4.00987,-4.5896 6.42187,-6.4336 -0.654,-0.021 -1.97295,-0.086 -2.62695,-0.1074 0.44,-1.351 0.88031,-2.6803 1.32031,-3.9883 0.365,-0.397 1.08327,-1.2114 1.44727,-1.6074 z m 1027.84761,1.4805 c 1.512,0.397 0.4499,2.9793 0.1289,4.0723 -2.284,0.375 -1.9619,-3.6333 -0.1289,-4.0723 z m 22.1856,1.3711 c -0.086,0.59 -0.2375,1.7694 -0.3125,2.3594 -0.965,1.137 -3.6772,0.2999 -2.7012,-1.3301 0.804,-1.137 1.8017,-1.4793 3.0137,-1.0293 z m -1043.47267,2.7012 c 0.504,1.405 1.04141,2.83 1.56641,4.289 h 0.8457 l 0.0859,1.1914 c -1.104,-0.558 -2.20778,-1.0831 -3.30078,-1.5761 -0.011,-1.319 -0.0117,-2.6166 -0.0117,-3.8926 z m 977.96087,2.166 c 2.337,1.276 5.0398,1.0727 7.6348,1.1367 l 0.062,0.998 c -2.52,-0.021 -5.0169,-0.022 -7.5039,0 -0.054,-0.536 -0.1504,-1.5987 -0.1934,-2.1347 z m 26.2266,0.2793 c 1.372,-0.708 3.2483,-0.7291 4.6523,0.043 0.493,2.326 -4.4273,1.3831 -4.6523,-0.043 z M 521.82007,132.959 c 2.723,2.402 0.84717,6.6487 1.57617,9.8867 1.147,2.327 0.87849,4.9864 1.14649,7.5274 1.04,2.37 0.82633,5.0181 0.98632,7.5801 0.311,0.793 0.94268,2.3798 1.26368,3.1738 -2.404,-0.143 -1.61268,-1.2171 -6.76368,-7.1211 -0.064,-0.579 -0.1716,-1.7374 -0.2246,-2.3164 -1.78,-3.066 -2.11213,-6.6906 -3.82813,-9.7676 -0.096,-0.547 -0.29948,-1.6395 -0.39648,-2.1855 -0.643,-1.061 -1.29669,-2.0916 -1.92969,-3.0996 -0.032,-0.643 -0.0864,-1.941 -0.10742,-2.584 0.643,-0.096 1.92926,-0.2993 2.57226,-0.4063 1.78,-0.815 3.77508,-1.1275 5.70508,-0.6875 z m 8.75977,4.1699 c 0.461,0.011 1.37103,0.022 1.83203,0.033 5.59699,9.746 11.19505,19.4914 16.37304,29.4844 0.086,0.547 0.24727,1.6503 0.32227,2.1973 4.139,3.581 5.03814,9.3518 8.61914,13.3828 -0.751,-0.021 -2.26267,-0.055 -3.01367,-0.065 -0.6,0.632 -1.17881,1.2865 -1.75781,1.9825 -2.638,-1.533 -5.87496,-1.1574 -8.50196,0.1406 0.129,-0.622 0.38591,-1.8768 0.50391,-2.5098 1.061,-2.08 0.95309,-4.3738 0.24609,-6.5078 0.45,-1.587 -0.72842,-2.9163 -1.23242,-4.2773 0.912,-1.823 0.86809,-3.8509 -0.12891,-5.5879 -0.064,-0.654 -0.19257,-1.9717 -0.26757,-2.6367 -1.38226,0.9535 -2.79699,1.8635 -4.28711,2.6562 0.011,-1.6823 0.0307,-3.3323 0.0527,-4.9726 1.244,0.45 2.48719,0.9217 3.74219,1.4257 -0.976,-2.402 -3.33514,-6.0362 -5.99414,-3.2382 0.021,0.783 0.0754,2.3478 0.10742,3.1308 l -0.98633,0.086 c -0.096,-0.643 -0.28776,-1.9293 -0.38476,-2.5723 -1.565,-2.412 -0.26878,-5.0511 0.44922,-7.4531 -0.504,0.375 -1.51163,1.1152 -2.01563,1.4902 -0.322,-0.718 -0.97587,-2.155 -1.29687,-2.873 -0.043,-1.769 -0.0547,-3.5162 -0.0547,-5.2422 0.311,-0.504 0.94462,-1.5231 1.26562,-2.0371 -2.96999,-0.793 -3.97779,-3.1962 -3.59179,-6.0372 z m 962.66986,4.8692 c 3.377,0.429 3.9025,3.4422 3.7305,6.3262 1.418,3.509 1.2533,2.8614 2.1973,7.0214 -2.187,-0.001 -4.3958,-0.012 -6.5508,0.022 3.217,-1.919 1.7812,-5.9401 1.8242,-8.9531 -0.515,-1.458 -0.9222,-2.937 -1.2012,-4.416 z m -515.41595,1.2305 c 0.836,0.718 1.6742,1.4689 2.5312,2.2519 1.716,0.236 3.4196,0.5994 5.0606,1.2324 -0.021,-0.611 -0.065,-1.8428 -0.098,-2.4648 0.868,0.815 1.7382,1.6505 2.6172,2.5195 1.63,-0.011 3.2582,-0.012 4.9102,0.031 l -0.012,1.0625 c -5.725,-0.01 -11.4373,-0.011 -17.1523,0 l -0.012,-1.0196 c 0.536,-0.021 1.6085,-0.074 2.1445,-0.096 0,-0.879 0.01,-2.6385 0.01,-3.5175 z m 339.88665,0.3437 h 2.1543 c -0.021,2.691 -0.021,5.3942 -0.043,8.1172 -0.718,0.997 -1.4253,2.0049 -2.1113,3.0449 -0.032,-3.73 -0.011,-7.4521 0,-11.1621 z m 102.9317,8.5781 0.019,0.8692 c -3.334,0.129 -7.6968,2.4985 -10.2168,-0.7715 3.388,-0.161 6.7873,-0.1187 10.1973,-0.098 z m -256.2442,1.0723 h 2.1328 c -0.011,1.405 -0.01,2.8303 0,4.2773 -1.458,-0.021 -2.8963,-0.01 -4.3223,0.012 l 0.043,-1.0196 c 0.536,-0.021 1.5988,-0.086 2.1348,-0.1074 0,-0.793 0.012,-2.3691 0.012,-3.1621 z m 134.0117,3.2168 h 3.2168 v 3.2168 h -3.2168 z m 21.4453,0 c -0.011,2.841 -0.011,5.7041 0,8.5781 l -0.9765,0.012 c -0.118,-1.233 -0.2361,-2.4345 -0.3321,-3.6035 -0.633,-1.608 -0.8472,-3.3236 -1.0722,-4.9746 0.59,0 1.7808,-0.012 2.3808,-0.012 z m -1170.74014,2.6484 c 1.287,0.718 2.71214,1.4161 3.49414,2.7891 -0.878,1.2 -2.24035,1.8747 -3.52735,2.5937 -0.021,-1.823 -0.01,-3.6138 0.0332,-5.3828 z m 260.91796,1.6621 c -2.19799,2.444 -4.83565,4.3955 -7.47265,6.3575 -3.485,0.043 -6.97985,0.055 -10.46485,0.055 0.429,-0.5249 1.27536,-1.565 1.69336,-2.08 4.9,0.729 9.10449,-1.9313 13.14649,-4.2793 0.772,-0.01 2.32566,-0.043 3.09765,-0.053 z m 1004.95698,2.1758 c 0.729,1.008 1.3632,2.0906 1.9102,3.2696 -2.316,-0.032 -4.7304,-0.031 -6.4024,-1.8321 1.469,-0.482 2.8952,-1.4055 4.4922,-1.4375 z m -877.99799,1.961 c 0.56754,0.1398 1.71473,0.408 2.2832,0.5371 -0.086,2.391 0.26815,4.7707 1.24414,7.0117 l -1.79101,-0.1504 c 0.59,0.622 1.20222,1.2647 1.82422,1.9297 -0.054,0.911 -0.17356,2.7345 -0.22656,3.6465 l -0.79297,0.076 c -1.169,-4.289 -2.41202,-8.6007 -2.54102,-13.0507 z m 460.13274,5.4902 h 2.1446 c -0.011,2.219 -0.011,4.4614 0,6.7344 l -2.1446,-1.6739 c -0.011,-1.715 -0.011,-3.4085 0,-5.0605 z m -366.69138,8.5351 v 11.8477 l -0.9101,-0.01 c -0.086,-2.005 -0.355,-3.9469 -0.666,-5.8769 0.279,-1.973 0.548,-3.9445 0.666,-5.8965 z m 898.45703,1.084 c 0.943,0.043 2.8412,0.1172 3.7852,0.1602 -0.708,1.662 -1.9415,2.9053 -3.6035,3.6133 -0.043,-0.944 -0.1387,-2.8305 -0.1817,-3.7735 z m -8.5351,0.031 c 1.769,-0.021 3.5493,-0.021 5.3613,0 v 3.2168 c -1.812,-0.032 -3.5923,-0.021 -5.3613,0 z m -1088.25587,2.1133 c 2.295,0 4.61002,0.02 6.91602,0.1172 0.665,0.343 2.00492,1.028 2.66992,1.371 l 0.0762,0.6875 c -0.547,0.011 -1.63073,0.032 -2.17773,0.043 -0.011,1.748 -0.011,3.5154 0,5.3164 -1.319,-0.021 -2.62755,-0.021 -3.93555,0 -0.44,-0.504 -1.31758,-1.5116 -1.76758,-2.0156 1.179,-0.804 2.44474,-0.9856 3.67774,-0.1816 1.00799,-1.448 0.86909,-2.9271 -0.12891,-4.2891 -1.801,0.011 -3.59282,0.022 -5.38281,0.076 z m 177.88674,1.1035 h 3.3144 c -0.011,2.605 -0.023,5.2214 -0.1836,7.8594 -1.04,1.523 -1.2646,3.3867 0.2364,4.8027 -0.311,0.986 -0.6336,1.9947 -0.9766,3.0137 -0.096,1.544 -0.1801,3.0983 -0.2441,4.6953 h -3.1426 c 0,-2.412 -0.011,-4.8019 0,-7.1719 0.547,-0.44 1.6502,-1.3198 2.1972,-1.7598 -0.075,-1.469 -0.149,-2.9058 -0.246,-4.2988 -1.169,-2.22 -0.8591,-4.7706 -0.9551,-7.1406 z m -166.92775,2.6367 c 1.01899,2.123 2.00387,4.2892 1.67187,6.7012 -0.943,1.716 -3.03286,1.2339 -4.63086,1.5449 0.75,-1.405 1.58653,-2.7238 2.51953,-3.9668 0.128,-1.458 0.27846,-2.8853 0.43946,-4.2793 z m -18.33594,0.5586 c -0.435,6.284 -0.27678,2.5284 -1.42578,8.9414 -0.622,-0.332 -1.88654,-0.9854 -2.51953,-1.3184 -1.233,-0.064 -2.45474,-0.086 -3.67774,-0.086 -0.482,-1.147 -2.03726,-2.5619 -0.32226,-3.4199 1.75799,-1.329 4.2582,-1.8438 5.1582,-4.0528 0.697,-0.011 2.09011,-0.054 2.78711,-0.064 z m 131.97656,0.5684 c 2.509,1.201 3.9036,3.732 6.0586,5.416 0.043,0.364 0.13936,1.1145 0.19336,1.4785 0.611,0.054 1.83331,0.1503 2.44531,0.1933 -0.493,1.49 -0.98647,3.0022 -1.48047,4.5352 -0.375,-0.354 -1.13744,-1.0515 -1.52344,-1.3945 -0.675,0.364 -2.03666,1.0832 -2.72265,1.4472 -0.011,1.158 -0.0117,2.3369 -0.0117,3.5489 0.611,0.45 1.82354,1.3507 2.43554,1.8007 -0.311,1.33 -0.46159,2.843 -1.68359,3.7539 -2.466,0.236 -4.94416,0.097 -7.41016,0.129 0.735,-5.178 0.81155,-4.8878 2.06055,-8.0098 -0.532,-3.685 0.63867,-5.0845 1.63867,-12.8984 z m -10.08789,1.5859 c 2.23,-0.021 4.46018,-0.011 6.70117,0.022 -0.282,8.911 -0.25878,2.3776 -1.42578,11.0976 -0.89,2.005 -0.78437,4.2147 -0.85937,6.3907 -0.997,-1.415 -2.00541,-2.7995 -3.06641,-4.1075 -0.044,-1.361 -0.0754,-2.6795 -0.10742,-3.9765 -0.472,0.375 -1.43597,1.1145 -1.91797,1.4785 -0.477,-3.693 -3.90501,-3.0478 3.33398,-7.3438 -0.87899,-1.212 -1.7792,-2.4125 -2.6582,-3.5605 z m 161.2344,7.4746 c -0.996,1.5 -3.2587,2.9474 -1.7247,4.9414 0.515,1.759 0.9961,3.5286 1.4571,5.3516 -1.137,-0.826 -2.6798,-1.2538 -3.2168,-2.6367 -1.68298,-2.327 0.2148,-5.1053 0.3008,-7.6133 0.793,-0.011 2.3906,-0.032 3.1836,-0.043 z m -291.67971,0.1484 c 1.458,0.472 2.93969,0.9116 4.42968,1.3086 -0.99699,0.547 -1.99542,1.1261 -2.98242,1.7481 h -3.1289 c 0.547,-1.062 1.10264,-2.0697 1.68164,-3.0567 z m 11.74023,0.9239 c 3.881,0.043 7.77426,0.032 11.65625,0.043 0.011,0.783 0.0203,2.3479 0.0312,3.1309 1.19,0.064 2.38031,0.1715 3.57031,0.3105 4.251,1.863 5.96051,-0.323 13.5625,2.293 l 0.0215,0.6973 c -1.415,-0.021 -2.83038,-0.021 -4.23438,0 -0.032,0.493 -0.0959,1.4914 -0.1289,1.9844 -0.504,0.1719 -1.49014,0.5233 -1.99414,0.6953 0.332,0.89 0.66409,1.8135 0.99609,2.7675 -0.515,-0.021 -1.54359,-0.064 -2.05859,-0.086 -0.748,4.903 -0.7693,2.6839 -1.4043,7.4609 -0.472,0.032 -1.41667,0.087 -1.88867,0.1075 -0.032,1.887 -0.0525,3.8051 -0.10547,5.7461 -1.619,1.973 -2.87419,4.203 -4.11719,6.455 0.708,1.179 1.41358,2.3803 2.14258,3.6133 -1.576,0.504 -3.14131,1.0626 -4.69531,1.6406 0.504,0.944 1.01992,1.9193 1.54492,2.9063 h -1.70508 c -1.169,1.737 -2.49825,3.3668 -3.65625,5.1348 0.3,1.308 0.72875,2.648 1.09375,3.998 -1.137,0.944 -2.25195,1.9425 -3.37695,2.9395 0,0.718 -0.0215,2.155 -0.0215,2.873 -0.697,0 -2.08034,0.01 -2.77734,0.01 -0.761,1.598 -1.55391,3.2181 -2.37891,4.8261 -0.086,0.697 -0.25847,2.0784 -0.35547,2.7754 l 1.26563,-0.2246 -0.0527,1.4903 c -0.45,-0.375 -1.35274,-1.125 -1.80274,-1.5 -0.354,2.144 -1.23269,4.2021 -2.30469,6.1211 -0.086,1.1689 -0.14889,2.3705 -0.21289,3.6035 -0.579,0.043 -1.7374,0.1279 -2.3164,0.1699 0.375,2.005 1.59793,4.1285 0.46093,6.1445 0.3,0.311 0.88946,0.9449 1.18946,1.2559 h -3.24805 c -1.382,1.707 -2.6267,3.6048 -4.4707,4.8808 0.319,-12.289 -1.38431,0.6649 1.17968,-22.4101 0.165,-0.377 4.08744,-24.9719 4.14844,-25.3789 0.504,0.043 1.51163,0.1191 2.01563,0.1621 -1.844,-3.828 -0.95342,-8.2146 -0.85742,-12.2676 1.05499,-2.383 1.70234,-11.1827 2.77734,-14.3027 0.054,-3.56 0.27781,-7.1494 2.50781,-10.0664 z m 196.9512,0.021 c 0.279,1.726 0.6436,3.4942 0.8906,5.2852 -0.836,0.59 -1.7055,1.1478 -2.6055,1.6738 -0.075,-0.665 -0.2238,-1.9844 -0.2988,-2.6484 -1.415,-0.032 -2.8091,-0.032 -4.2031,0 -0.011,-1.459 -0.011,-2.8841 0,-4.2891 h 3.2265 l -0.012,0.9219 c -0.675,0.097 -2.0157,0.2878 -2.6797,0.3848 1.555,0.772 3.1315,1.5327 4.7285,2.3047 0.032,-0.911 0.087,-2.7114 0.1075,-3.6114 z m -202.47268,2.7344 c -0.011,1.726 -0.011,3.5052 -0.043,5.2852 -0.343,0.686 -1.03981,2.0581 -1.38281,2.7441 -2.112,-0.483 -4.26715,-0.7811 -6.36914,-1.2851 -0.053,-2.541 1.64142,-4.2587 4.10742,-4.5157 1.233,-0.761 2.4545,-1.5105 3.6875,-2.2285 z m 35.44726,2.6465 c 4.664,-0.011 9.34063,-0.011 14.01563,0 -0.121,6.556 -0.60914,6.8663 -1.99414,10.1973 -1.348,4.313 -1.14124,8.839 -3.99024,13.916 -0.038,0.238 -1.68758,10.1181 -1.76758,10.7871 -0.611,1.008 -1.21373,2.0369 -1.80273,3.0879 -0.172,1.823 -0.3847,3.6865 -0.8457,5.5195 -0.748,1.912 -0.89896,2.0962 -1.87696,6.2832 -0.996,3.986 -0.53284,3.9199 -2.08984,8.5879 -0.429,1.372 -0.79369,2.7893 -1.17969,4.2363 -0.44,1.801 -0.65394,3.656 -0.83593,5.543 -0.59,0.997 -1.17882,2.0264 -1.75782,3.0664 0.501,4.409 -2.18,7.9792 -5.375,10.6602 1.919,1.662 -0.0413,3.0667 -1.07031,4.4707 0.493,1.608 3.25722,3.6025 1.19922,5.1035 -0.965,1.587 -2.19663,0.6122 -3.14063,-0.3848 1.662,-5.125 -0.53588,-10.7758 1.66211,-15.6758 0.44,-2.595 0.20444,-5.1052 -2.47656,-6.1562 -0.397,0.793 -1.19089,2.3808 -1.58789,3.1738 -0.086,1.737 -0.14961,3.4954 -0.22461,5.2754 -0.322,0.633 -0.97587,1.8768 -1.29687,2.5098 -1.329,0.504 -2.63904,1.0387 -3.95704,1.5957 -0.011,1.308 -0.01,2.6282 -0.01,3.9902 l -1.0625,-0.012 v -18.2051 c 1.276,-0.043 2.55284,-0.065 3.83984,-0.055 1.662,-1.147 3.31264,-2.3153 4.93164,-3.4843 -0.407,-0.461 -1.23239,-1.3828 -1.65039,-1.8438 -1.662,-0.021 -3.32361,-0.032 -4.97461,0 0.021,-0.558 0.0532,-1.6852 0.0742,-2.2422 -1.673,0.729 -3.36706,1.415 -5.03906,2.166 -0.536,-0.568 -1.07166,-1.1036 -1.59766,-1.5976 2.68,-0.697 3.24799,-3.6981 4.45899,-5.7891 1.158,-1.984 1.01992,-4.3105 1.16992,-6.4765 h 3.02344 c 0.043,-1.255 0.0974,-2.4875 0.15039,-3.6875 2.92799,-2.774 3.82483,-7.8309 4.29883,-11.8379 2.85199,-1.029 3.74151,-4.0311 5.10351,-6.4121 0.064,-0.557 0.2143,-1.6735 0.2793,-2.2305 1.201,-2.241 2.413,-4.4587 4,-6.4317 0.054,-0.568 0.17161,-1.7171 0.22461,-2.2851 1.04,-0.986 2.07986,-1.9498 3.13086,-2.8828 0.021,-1.512 0.0537,-2.9915 0.0957,-4.4395 1.254,-1.909 1.81132,-4.6644 4.32031,-5.2754 -0.375,-0.418 -1.14525,-1.2546 -1.53125,-1.6836 -0.718,0 -2.17725,-0.02 -2.90625,-0.031 z m 17.13477,0.7832 2.14258,1.6738 c -0.011,2.23 4.8e-4,4.4914 0.0215,6.7754 -1.544,2.338 -3.50516,4.3533 -5.66016,6.1543 -0.428,-2.305 1.71538,-3.5694 3.48438,-4.1484 0.021,-3.495 7.2e-4,-6.9921 0.0117,-10.4551 z m 37.43945,1.3633 h 2.11328 c 1.118,7.449 3.94255,9.8437 0.68555,13.2617 -0.461,-0.6 -1.40423,-1.8121 -1.86523,-2.4121 l 1.15625,-0.1289 c -1.953,-7.477 -1.80685,-7.3007 -2.08985,-10.7207 z m 59.1211,2.0469 c -0.011,0.557 -0.0532,1.662 -0.0742,2.209 0.547,0.021 1.6183,0.064 2.1543,0.086 l 0.0117,1.0293 c -1.81199,-0.043 -3.60258,-0.043 -5.39257,-0.021 0.01,-0.44 0.0195,-1.319 0.0195,-1.748 1.094,-0.536 2.18725,-1.0507 3.28125,-1.5547 z m 38.5351,2.1972 v 8.6426 l -1.0722,-0.033 c -0.011,-2.863 -0.011,-5.7041 0,-8.5351 z m 78.2598,0.01 c -0.086,3.066 -0.1391,6.1757 0.5469,9.2207 -0.868,3.41 -0.449,6.9491 -0.707,10.4551 -0.665,1.287 -0.8039,2.7439 -0.9219,4.2129 1.554,1.973 1.4559,4.7617 0.1699,6.8847 -0.407,3.538 0.5259,7.355 -1.0391,10.711 -0.654,2.852 1.0181,6.732 -1.5878,8.791 -3.678,0.354 -7.3865,0.086 -11.0645,0.1504 -0.332,0.675 -1.0196,2.0484 -1.3516,2.7344 -0.096,1.715 -0.1593,3.4621 -0.2343,5.2421 -0.397,0.804 -1.1909,2.4148 -1.5879,3.2188 -1.319,-0.911 -2.3486,-2.1229 -3.1426,-3.4629 -1.372,-0.332 -2.9267,-0.1083 -4.0957,-0.9453 -0.547,-1.33 0.086,-2.8092 -0.1289,-4.1602 0.643,-2.155 0.6105,-4.343 -0.064,-6.455 0.193,-1.437 0.5042,-2.8509 0.8262,-4.2129 1.212,-0.911 2.4343,-1.8117 3.6563,-2.6797 2.7339,1.029 5.5435,0.5344 8.2675,-0.2696 -0.997,-0.965 -1.9724,-1.9188 -3.0234,-2.7558 -1.791,0.247 -3.5506,0.7077 -5.3086,1.0937 0.804,-0.965 1.6315,-1.8976 2.4785,-2.8086 0.043,-0.568 0.1374,-1.7054 0.1914,-2.2734 0.643,-1.062 1.2874,-2.1001 1.9414,-3.1191 0.064,-0.568 0.1831,-1.694 0.2481,-2.252 1.876,-1.994 3.474,-4.2148 5.125,-6.3808 0.043,-0.536 0.1286,-1.5864 0.1816,-2.1114 4.632,-3.002 4.4285,-10.2179 9.5215,-12.9629 0.021,-1.962 0.031,-3.9025 0.053,-5.8105 z m 515.67183,0.7207 c 0.032,0.611 0.087,1.8226 0.1191,2.4336 1.876,0.214 4.0306,-0.3335 5.7246,0.7715 0.386,5.125 0.9426,10.25 0.6426,15.4179 l 1.0078,-0.01 c 0.053,-1.587 0.1406,-3.1313 0.2696,-4.6543 1.608,-3.592 0.6751,-7.6457 0.8671,-11.4297 h 3.2383 c -0.032,3.356 -0.3216,6.7873 0.5254,10.1113 -1.243,13.348 -0.1921,26.8798 -0.5351,40.3028 l -1.084,-0.031 c 0,-2.08 0.011,-4.1283 0.043,-6.1543 -1.6409,-1.448 -3.3673,-3.4628 -5.4042,-1.3398 -0.054,-1.576 -0.095,-3.1208 -0.1602,-4.6328 -1.221,-2.267 -0.9414,-2.9304 -0.9004,-21.8184 -0.418,-0.364 -1.2441,-1.1145 -1.6621,-1.4785 -0.879,0.847 -1.758,1.7145 -2.627,2.6035 -0.032,-4.964 0.073,-9.9279 -0.098,-14.8809 -1.083,0.515 -2.0682,1.1472 -2.9902,1.9082 1.212,4.235 1.0504,8.6622 0.8574,13.0372 -0.343,0.686 -1.0281,2.06 -1.3711,2.746 l -0.4922,0.01 c -1.456,-10.515 -1.5741,-1.0241 -2.3281,-20.3711 1.255,-0.032 2.5301,-0.044 3.8281,-0.033 0.826,-0.858 1.6723,-1.6928 2.5293,-2.5078 z m -573.50773,0.3535 c 2.68,1.062 6.036,-0.4936 8.084,2.0254 0.59,-0.321 1.7918,-0.9644 2.3808,-1.2754 2.465,13.764 0.9865,12.6989 1.1035,23.2129 -0.686,1.298 -0.8034,2.7661 -0.9004,4.2461 1.576,2.177 0.964,4.9534 1.125,7.4844 -2.466,0.15 -4.1809,-1.2981 -4.9199,-3.5391 -1.512,0.386 -3.0999,1.2551 -4.5469,0.2481 -0.084,0.664 -0.2557,1.9932 -0.3417,2.6582 -0.858,-0.547 -2.5737,-1.6405 -3.4317,-2.1875 0.386,-1.19 0.8039,-2.3369 1.2539,-3.4629 0.172,-3.131 0.2148,-6.2611 -0.031,-9.3711 -1.737,-4.053 -0.7501,-8.62 -0.7071,-12.877 1.147,-2.23 0.8567,-4.7821 0.9317,-7.1621 z m -6.2071,1.3926 c 1.351,0.547 2.0158,3.4958 1.4258,4.9648 -2.38,0.579 -2.2618,-3.6238 -1.4258,-4.9648 z m -4.0371,0.01 c 0.9155,0 1.8334,0.5588 1.1739,1.6953 -0.579,0.011 -1.7472,0.012 -2.3262,0.012 -0.6755,-1.1315 0.2368,-1.703 1.1523,-1.707 z m -198.95113,0.2793 c -1.008,2.412 -1.09375,5.0402 -1.09375,7.6562 -0.354,0.333 -1.08327,1.0066 -1.44727,1.3496 -0.686,-0.353 -2.06886,-1.0698 -2.75586,-1.4238 -0.011,-1.533 -0.011,-3.0242 0,-4.4942 1.791,-0.9969 3.52788,-2.0688 5.29688,-3.0878 z m 688.49016,0.1 c 0.89,0.901 1.7797,1.8348 2.6797,2.8008 l 3.248,-1.1915 c 20.414,-0.821 19.8411,-1e-4 20.6621,1.2969 0.364,3.91 0.075,7.8675 0.1387,11.8125 -0.311,-0.311 -0.9116,-0.9439 -1.2226,-1.2539 -4.739,1.726 -9.9169,0.5352 -14.8379,0.8672 0,2.616 -0.054,5.2543 -0.1719,7.9023 -0.375,0.987 -0.7078,2.0165 -1.0078,3.0665 1.201,1.1579 1.2763,2.3702 0.2363,3.6562 -0.29,5.114 -0.1184,10.2495 -0.1504,15.3965 -2.155,-0.021 -4.3006,-0.021 -6.4336,0 -0.011,2.788 -0.012,5.6087 -0.022,8.4277 2.091,0.687 4.2461,1.1905 6.4551,1.4805 v 0.8144 c -2.123,-0.021 -4.2339,-0.021 -6.3359,0 -0.075,0.654 -0.2056,1.973 -0.2696,2.627 -0.279,0.675 -0.8257,2.0252 -1.0937,2.7012 -2.005,-1.158 -4.1164,-2.1231 -6.4004,-2.4551 0.407,1.758 1.6192,3.6365 0.3652,5.3945 1.683,0.547 2.8942,1.6817 3.5372,3.3867 -0.922,0.043 -2.7548,0.1289 -3.6778,0.1719 -0.043,0.589 -0.1289,1.7694 -0.1719,2.3594 -1.619,-0.45 -3.2052,-0.943 -4.8242,-1.2109 -1.458,1.2219 -3.8613,3.0331 -1.6094,4.9101 -0.708,0.568 -1.3933,1.1783 -2.0683,1.8223 0.032,0.547 0.1184,1.6307 0.1504,2.1777 0.997,1.244 1.93,2.5727 2.498,4.1387 -0.643,-0.397 -1.9185,-1.1792 -2.5625,-1.5762 -2.262,2.316 1.2639,3.8177 2.4219,5.5547 -1.726,0.011 -3.4522,0.064 -5.1562,0.1504 0.911,1.394 1.865,2.7881 2.83,4.2031 -0.568,0 -1.7259,-0.022 -2.2949,-0.022 -0.021,1.372 -0.011,2.7772 0,4.2031 0.954,0.064 2.8529,0.1921 3.7969,0.2461 -1.694,2.466 -3.7743,4.6427 -5.4473,7.1407 1.04,0.054 3.1087,0.1628 4.1387,0.2168 -1.405,0.997 -2.7977,2.0246 -4.1387,3.1406 -0.354,-0.333 -1.0718,-0.9854 -1.4258,-1.3184 l -0.1386,1.2227 c -7.368,-2.024 -8.1406,-2.1136 -14.4336,-1.9746 -1.04,0.804 -2.0675,1.6633 -3.1075,2.4883 -0.472,-1.63 -1.5021,-2.6602 -3.0781,-3.0782 -0.161,-4.739 4.9437,-3.731 8.1387,-3.914 1.158,-0.9 2.3363,-0.8988 3.5273,-0.01 0.761,0.043 2.284,0.1172 3.045,0.1602 -0.568,-1.094 -1.1893,-2.1346 -1.8653,-3.0996 -2.605,0.601 -5.394,1.6733 -7.914,0.1933 -1.029,-0.193 -2.0467,-0.3527 -3.0547,-0.4707 -2.477,-2.487 -5.984,-3.0997 -9.211,-4.0117 0.011,0.515 0.043,1.5455 0.064,2.0605 -2.091,-0.021 -4.1712,-0.021 -6.2402,0 -0.247,2.97 -1.5332,6.2706 0.9218,8.7266 -0.332,0.515 -0.997,1.5455 -1.33,2.0605 -1.094,-0.826 -2.1227,-1.7382 -3.1407,-2.5742 1.78,-4.557 -0.7397,-9.2635 0.3223,-13.9375 2.101,-4.793 -0.097,-10.2281 1.457,-15.1601 -0.45,-1.169 -0.4607,-2.4132 0.3653,-3.4102 0.557,-4.278 -0.7495,-8.8449 1.0625,-12.8769 0.568,-4.267 -0.7195,-8.8362 1.0605,-12.8672 0.182,-3.109 0.1405,-6.2179 0.3555,-9.2949 1.748,-4.096 0.5674,-8.6961 0.9004,-12.9961 1.469,-0.944 2.895,-1.9288 4.332,-2.9258 -0.064,-3.131 -0.076,-6.2621 -0.055,-9.3711 -0.536,-0.032 -1.6073,-0.1184 -2.1543,-0.1504 0,-1.437 5e-4,-2.8416 0.022,-4.2246 4.128,-0.172 8.4263,0.6107 12.4473,-0.6973 1.951,1.405 3.8062,-1.7898 5.5332,-2.5508 0.397,1.04 0.8149,2.1124 1.2539,3.1954 2.576,-1.356 2.683,-1.0928 28.916,-1.0098 0.043,-0.633 0.1301,-1.909 0.1621,-2.541 z m 79.1172,0.3281 c 0.139,2.048 0.022,4.2465 1.084,6.1445 0.942,3.218 -1.3212,6.5629 -0.035,9.6289 0.214,2.734 0.2045,5.5004 0.022,8.2774 -0.944,1.136 -0.9545,2.2944 -0.022,3.4843 0.182,3.924 0.4075,7.8919 0.022,11.8379 -0.761,0.579 -1.5222,1.1683 -2.2832,1.7793 -1.061,-2.112 -3.077,-3.3767 -4.793,-4.8457 -1.758,1.662 -0.9654,3.6445 -0.1074,5.5645 -0.568,0.011 -1.6937,0.022 -2.2617,0.033 -0.021,-0.547 -0.075,-1.6307 -0.1074,-2.1777 -0.74,0.011 -2.2183,0.021 -2.9473,0.021 -0.761,-1.255 -1.4917,-2.4982 -2.2207,-3.6992 -0.15,-1.083 -0.2783,-2.1228 -0.4063,-3.1308 -1.137,-2.584 -0.8046,-5.4367 -0.8476,-8.1387 1.608,-0.075 3.2274,-0.1387 4.8574,-0.1816 -1.083,-2.262 -3.2797,-5.7359 -5.9277,-3.0879 0.021,-2.52 0.021,-5.0172 -0.022,-7.4942 1.212,0.493 2.4646,1.2854 3.8906,1.0274 1.265,-1.544 2.3393,-3.217 3.5293,-4.793 0.075,-2.359 0.053,-4.76 1.1035,-6.916 -1.19,-0.686 -2.3595,-1.3187 -3.5175,-1.9297 1.801,-0.3 3.689,-0.4175 5.416,-1.1465 1.844,-0.161 3.6982,-0.2258 5.5742,-0.2578 z m -704.98041,3.0898 c 0.525,0.493 1.05189,1.0192 1.58789,1.5762 -0.397,1.179 -0.76123,2.3901 -1.11523,3.6231 -0.933,1.448 -1.91844,2.8638 -3.02344,4.2148 -0.439,-3.431 1.19978,-6.4331 2.55078,-9.4141 z m 134.96878,0.1407 c 1.544,0.032 3.0875,0.1066 4.6425,0.2246 -1.244,0.815 -2.4974,1.641 -3.7304,2.498 l 0.022,0.043 c 1.222,0.804 2.4772,1.6068 3.6992,2.4648 -1.962,0.107 -3.925,0.1938 -5.877,0.3008 0.718,-1.78 1.0192,-3.6762 1.2442,-5.5312 z m 90.87888,1.0918 c 0.107,3.12 -0.5464,6.4767 0.8906,9.4257 -0.665,0.525 -1.3082,1.0722 -1.9512,1.6621 -0.011,-3.6889 -0.011,-7.3662 0,-11.0332 z m -85.76568,1.1054 h 0.9551 c 0.096,0.643 0.2885,1.9293 0.3965,2.5723 1.233,1.608 -0.043,3.2931 -0.4609,4.9551 -2.445,-0.043 -4.8883,-0.044 -7.3223,-0.033 v -2.1328 c 2.134,-0.021 4.2767,-0.021 6.4316,0 -0.011,-1.812 -0.011,-3.6034 0,-5.3614 z m -137.17573,4.2891 c 3.056,0.054 6.28322,-0.4928 9.19922,0.7402 -0.997,0.107 -3.00105,0.343 -3.99805,0.461 0.665,2.037 1.15707,4.1384 1.41407,6.3144 -3.024,-0.461 -7.4506,1.4157 -9.0586,-2.1113 0.74,-0.944 1.50072,-1.8659 2.26172,-2.7559 0.043,-0.665 0.13864,-1.9944 0.18164,-2.6484 z m 23.29883,0.1269 c 1.169,1.34 2.41091,2.7132 2.75391,4.5782 -1.04,-0.836 -2.05893,-1.6718 -3.04493,-2.5078 -1.27599,-0.043 -2.53992,-0.065 -3.79492,-0.055 l 0.0547,-0.6739 c 1.329,-0.504 2.67025,-0.9448 4.03125,-1.3418 z m -37.00195,0.4844 c -2.69,7.554 -0.25737,2.4018 -2.81836,7.9668 -0.472,0 -1.40496,0.011 -1.87696,0.022 1.083,-2.991 0.59932,-7.5593 4.69532,-7.9883 z m 42.25586,0.1934 c 1.555,0.826 3.10906,1.6927 4.66406,2.5937 -0.011,0.75 -0.0437,2.2744 -0.0547,3.0254 -0.761,0.011 -2.29269,0.02 -3.05469,0.031 -0.557,-1.888 -1.09368,-3.7744 -1.55468,-5.6504 z m -14.66797,0.2246 c 0.386,0.032 1.13672,0.1074 1.51172,0.1504 1.19,1.597 2.77683,2.8307 4.29882,4.1386 0.751,0.011 2.25196,0.042 3.00196,0.053 -0.44,0.611 -1.31881,1.8245 -1.75781,2.4355 -1.319,-0.44 -2.60487,-0.89 -3.88086,-1.33 -0.043,0.676 -0.12888,2.0144 -0.17188,2.6894 -1.222,-0.858 -2.15441,-2.0151 -3.06641,-3.1191 0.032,-1.705 0.0435,-3.3766 0.0645,-5.0176 z m -81.34766,0.6855 c -0.161,1.791 -0.22485,3.6776 -0.96484,5.3926 -0.182,1.372 -0.36416,2.7771 -0.53516,4.2031 -1.147,-0.901 -2.09219,-2.0166 -2.99219,-3.0996 0.01,-0.611 0.0425,-1.8428 0.0645,-2.4648 1.45799,-1.372 2.91573,-2.7343 4.42773,-4.0313 z m 1096.45895,2.5723 c 0.515,1.469 1.0819,2.9594 1.6289,4.4824 -1.48,-1.061 -2.9056,-2.1865 -4.5566,-2.8945 -0.021,-0.397 -0.055,-1.1902 -0.065,-1.5762 0.751,-0.011 2.2422,-0.012 2.9922,-0.012 z m -892.39843,2.1992 c 0.557,0.075 1.6735,0.2153 2.2305,0.2793 0.815,1.094 0.9325,2.2728 0.3535,3.5488 -1.287,-0.15 -2.831,-2.5301 -2.584,-3.8281 z m 890.60743,0.75 c 0.021,0.386 0.044,1.1687 0.055,1.5547 -2.381,0.439 -4.7601,0.8266 -7.1621,0.9336 1.78,-2.058 4.3084,-3.6683 7.1074,-2.4883 z m -1017.1699,1.5117 c 1.641,-0.987 2.50956,1.7154 1.35156,2.6914 -0.59,0.075 -1.75766,0.2356 -2.34765,0.3106 -0.45,-1.212 -0.11891,-2.219 0.99609,-3.002 z m 21.31641,0.1504 c 2.53099,-0.311 1.53288,3.2182 -0.53711,2.9922 -2.895,0.579 -1.11389,-2.7992 0.53711,-2.9922 z m -30.01172,0.6758 c 2.73799,0.369 1.5988,0.1435 6.09179,1.4805 l 0.0312,0.7402 c -2.61599,-0.023 -5.22141,-0.023 -7.8164,0 v 0 c 0.418,-0.558 1.26436,-1.6618 1.69336,-2.2188 z m -19.48047,3.752 c -0.354,2.935 -0.6466,2.9063 -1.3086,6.7343 -0.515,0.418 -1.54359,1.2637 -2.05859,1.6817 -0.011,-1.426 -0.0117,-2.8194 -0.0117,-4.1914 1.062,-1.468 2.15691,-2.9056 3.37891,-4.2246 z m 157.93355,2.4668 c -0.387,1.265 -1.0089,2.3916 -1.8769,3.3886 -2.745,0.257 -5.4992,0.095 -8.2442,0.1172 V 237.84 c 2.391,-0.011 4.8254,0.043 7.1524,0.75 0.74,-0.236 2.2287,-0.7171 2.9687,-0.9531 z m -139.49215,0.1269 c 1.887,-1.694 4.0978,-0.2677 6.0918,0.3223 l -0.0117,0.7832 c -3.085,-0.578 -5.19545,1.0361 -6.43945,3.7441 0.636,0.792 1.32645,1.5466 2.06445,2.2696 0.021,0.601 0.0647,1.7925 0.0977,2.3925 1.908,0.151 4.95139,0.8359 4.27539,3.4629 -0.783,4.546 0.38756,9.0927 -0.14844,13.6387 -0.901,1.737 -2.84194,1.3183 -4.46094,1.3613 -2.74499,-1.673 -6.14289,-0.4602 -8.96289,-1.8652 -1.673,-0.161 -3.34581,-0.2798 -5.00781,-0.3438 0.311,-0.643 0.9429,-1.9292 1.2539,-2.5722 0.096,-1.083 0.21427,-2.1236 0.32227,-3.1426 1.686,-3.858 1.43674,-2.5133 2.17774,-8.6953 0.59,-1.051 1.19001,-2.0799 1.79101,-3.0879 0.705,-5.42 0.48424,-1.9582 1.49024,-8.0742 1.823,-0.075 3.6448,-0.1184 5.46679,-0.1934 z m 65.96094,2.2969 c 2.713,-0.01 5.41691,-1e-4 8.12891,0.086 -1.973,3.163 -3.64651,6.6478 -6.5625,9.0918 -1.283,-6.243 -1.23841,-3.5957 -1.56641,-9.1777 z m -23.63086,0.7812 c 0.525,1.844 1.07364,3.7199 1.55664,5.6289 -0.516,0.012 -1.53578,0.033 -2.05078,0.033 -0.472,-1.33 -0.88991,-2.6595 -1.25391,-3.9785 0.579,-0.601 1.15805,-1.1576 1.74805,-1.6836 z m -53.28906,0.2891 1.05273,0.012 c -0.022,2.595 0.26645,5.5538 -2.43555,6.9688 0.403,-2.989 0.65082,-2.5895 1.38282,-6.9805 z m 47.11328,0.5371 c 1.994,3.196 4.66395,7.1728 2.25195,10.9258 -0.097,5.147 -0.30101,10.3152 -1.41601,15.3652 -0.482,0 -1.46794,-0.012 -1.96094,-0.012 -0.171,-10.868 1.455,-14.4243 1.125,-26.2793 z m -1.91992,0.5352 c -0.279,0.375 -0.84577,1.1054 -1.13477,1.4804 1.329,2.618 0.77019,5.619 0.86719,8.461 -0.547,-0.407 -1.63002,-1.2441 -2.16601,-1.6621 -0.011,-2.777 0,-5.5326 0,-8.2676 0.61099,0 1.83259,-7e-4 2.43359,-0.012 z m -7.02344,1.33 c 0.3,0.289 0.87969,0.8575 1.17969,1.1465 0.0913,2.2672 0.59064,4.651 -0.6543,7.2324 -2.01004,-3.3892 -6.74801,-3.659 -8.26562,-7.371 2.59499,-0.204 5.30623,0.064 7.74023,-1.0079 z m -49.0957,2.4122 c 0.011,1.384 0.0227,2.799 0.0117,4.246 -0.354,0.686 -1.06201,2.0477 -1.41601,2.7227 l -0.78125,0.043 c 0.054,-2.573 -0.21545,-5.4147 2.18555,-7.0117 z m 42.98437,3.4746 c 2.16546,0.9088 4.31314,1.872 6.56836,2.5937 -0.52796,1.0369 -0.40468,2.0022 -2.14062,3.1641 -1.533,-0.868 -2.9575,-1.8652 -4.4375,-2.7442 0,-0.751 0.01,-2.2526 0.01,-3.0136 z m 135.04494,1.2871 c -1.501,2.809 -1.3517,6.132 -0.4727,9.123 -0.418,1.716 -0.6004,3.4627 -0.4824,5.2637 2.026,2.896 1.3834,7.4215 -2.7656,7.5605 -0.654,0.225 -1.9515,0.6859 -2.6055,0.9219 -0.032,-0.729 -0.1184,-2.1655 -0.1504,-2.8945 -1.319,-0.804 -2.2838,-1.9839 -3.2168,-3.1309 0.054,-2.283 -0.033,-4.5676 0.2129,-6.8086 0.944,-1.394 2.6489,-1.3941 4.1289,-1.6621 0.011,-0.45 0.044,-1.3605 0.055,-1.8105 0.472,-0.011 1.4245,-0.043 1.8965,-0.064 0.375,-2.177 1.7175,-4.4403 0.2695,-6.4883 0.783,0 2.3479,-0.01 3.1309,-0.01 z m 673.40033,0.086 h 2.0273 c 0.064,1.522 0.1501,3.0771 0.2891,4.6641 0.89,1.748 0.8351,3.7423 0.9961,5.6933 -0.568,0.439 -1.7055,1.3286 -2.2735,1.7676 -0.021,1.287 -0.021,2.606 0,3.957 -0.547,0 -1.6287,0 -2.1757,0.01 0.076,-2.777 -0.4175,-5.7037 0.9335,-8.2227 0.161,-2.6369 0.1812,-5.2631 0.2032,-7.8691 z m -335.65035,0.5996 c 0.021,3.12 -0.032,6.2611 0.1933,9.4141 1.491,2.949 0.7714,6.3682 0.9004,9.5742 -0.536,-0.418 -1.6065,-1.2441 -2.1425,-1.6621 v -2.584 c -0.547,-0.44 -1.6523,-1.308 -2.1993,-1.748 0.054,-1.469 0.1298,-2.9146 0.2578,-4.3086 0.847,-1.78 0.8583,-3.7529 1.0293,-5.6289 0.633,-1.051 1.286,-2.0697 1.961,-3.0567 z m 449.27145,0.1934 c 0.525,0.407 1.5768,1.2326 2.0918,1.6406 0.043,1.791 0.098,3.6016 0.2481,5.4355 0.568,1.437 0.825,3.0024 1.125,4.5684 -0.6,0.45 -1.7909,1.3625 -2.3809,1.8125 -0.011,0.6 -0.042,1.8226 -0.053,2.4336 -0.708,0.997 -1.4058,2.0164 -2.0918,3.0664 0.095,-3.26 -0.6444,-6.735 0.8886,-9.748 0.204,-3.077 0.1719,-6.153 0.1719,-9.209 z m -956.65426,1.6406 c 1.061,1.844 0.2034,4.5569 -1.30859,5.9609 -0.762,-0.439 -0.82441,-1.1787 -0.19141,-2.2187 0.654,-1.083 -0.022,-3.5712 1.5,-3.7422 z m 41.72852,0.7188 c 0.568,0.643 1.70615,1.9507 2.28515,2.5937 -0.096,3.034 2.61613,6.818 -0.92187,8.791 0.332,0.183 1.00784,0.5485 1.33984,0.7305 -0.418,0.482 -1.24411,1.4379 -1.66211,1.9199 -1.46899,-0.075 -2.93848,-0.1179 -4.39648,-0.1289 -0.729,-0.365 -2.16553,-1.0835 -2.89453,-1.4375 0.547,-1.394 1.10339,-2.7889 1.65039,-4.1289 2.005,0.954 3.99894,1.9619 5.96094,3.0449 0.011,-0.568 0.0327,-1.7047 0.0547,-2.2617 -1.70499,-0.976 -3.34458,-2.005 -5.01757,-2.959 -0.472,-0.89 -0.94574,-1.7485 -1.42774,-2.5625 1.962,-0.783 4.1603,-1.4785 5.0293,-3.6015 z m 749.57214,2.5507 c 0.589,1.384 0.6431,3.2166 -0.043,4.6426 -2.616,0.547 -1.984,-4.7066 0.043,-4.6426 z m -605.48813,1.8008 h 2.0898 c -0.012,2.371 0.1174,4.7718 -0.1406,7.1738 -1.715,1.876 -4.3314,2.4124 -6.7324,2.7344 0.761,-1.887 1.3297,-4.0532 3.2597,-5.0722 0.343,-0.536 1.0184,-1.5871 1.3614,-2.1231 0.043,-0.676 0.1191,-2.0369 0.1621,-2.7129 z m -84.17972,0.022 c 6.38,-0.021 12.76945,-0.1065 19.14844,0.064 1.222,0.869 2.46548,1.7369 3.73048,2.6269 l 0.1621,0.5039 c -0.815,0 -2.44577,0.012 -3.25976,0.012 v 11.7715 c 2.28396,-0.021 4.57776,-0.031 6.88276,0.012 -1.028,0.687 -2.0447,1.3824 -3.0527,2.1114 -1.64,-0.011 -3.27038,-10e-5 -4.90038,0.043 -0.011,-1.684 -0.011,-3.3341 0,-4.9531 -0.826,-0.815 -1.64108,-1.5764 -2.45508,-2.3164 -1.94099,0.858 -4.07453,0.8051 -6.14453,0.9551 l 0.0215,0.9863 c 0.793,-0.032 2.35934,-0.1067 3.15234,-0.1387 -0.944,1.93 -1.05267,4.0853 -1.13867,6.2403 -0.643,0.247 -1.9185,0.7386 -2.5625,0.9746 -2.412,0.129 -3.64474,2.1452 -4.80273,3.9902 0.25699,4.01 -0.85813,8.3417 0.92187,12.1367 0.139,2.498 0.505,5.1787 -0.75,7.5157 -0.129,1.866 -0.19405,3.7633 -0.24805,5.6933 -2.13399,-0.021 -4.25714,-0.021 -6.36914,0 0,-4.439 0.0753,-8.8781 -0.13867,-13.2851 -0.45,-1.147 -0.86791,-2.2822 -1.25391,-3.4082 0.611,-0.439 1.84408,-1.3401 2.45508,-1.7911 0.011,0.622 0.032,1.8429 0.043,2.4649 0.665,-0.075 2.00492,-0.2036 2.66992,-0.2676 -2.54099,-3.538 -6.56182,-7.3345 -4.29883,-12.0625 -0.53599,-1.887 -0.81538,-3.8047 0.22461,-5.5527 0.107,-0.525 0.30121,-1.5775 0.40821,-2.1035 1.019,-0.611 2.0364,-1.1784 3.0664,-1.7364 -1.158,-1.329 -1.14651,-2.6473 0.0215,-3.9453 -1.297,-1.34 -2.88575,-0.4075 -4.34375,-0.021 0.054,-0.675 0.16184,-2.0271 0.21484,-2.7031 0.879,-1.287 1.73771,-2.5514 2.5957,-3.8164 z m -114.23242,2.7559 c -0.011,1.383 -0.01,2.8003 -0.0195,4.2363 -0.718,1.008 -1.42653,2.0369 -2.14453,3.0879 0,-1.448 0.0115,-2.8736 0.0215,-4.2676 0.708,-1.04 1.41358,-2.0596 2.14258,-3.0566 z m -355.51172,2.5625 c 0.42933,0.084 1.27543,0.2481 1.72461,0.3359 -0.40742,0.2989 -0.75551,0.5182 -1.47851,0.9727 l -0.61133,-0.5352 z m 35.98829,5.414 v 5.3301 c 2.14399,-0.021 4.28764,-0.021 6.43164,0 v 6.4336 c -7.39735,-0.1289 -14.80579,0.2233 -22.20313,-0.1406 -1.308,-0.933 -1.37283,-2.5623 -1.67383,-3.9453 2.605,-0.161 5.20122,-0.4827 7.69922,-1.2657 -0.461,-1.448 -0.90108,-2.8938 -1.33008,-4.2988 -1.67299,-0.032 -3.34581,-0.032 -5.00781,0 v -1.9512 c 5.35,-1.383 10.67999,0.02 16.08399,-0.1621 z m 287.23046,0.9766 c 1.555,0.01 3.10978,0.054 4.67578,0.1191 -0.279,1.168 -0.57962,2.3574 -0.89062,3.5684 1.382,6.905 0.26709,14.0361 0.62109,21.0371 -4.40699,-0.011 -8.81299,0.011 -13.20898,-0.043 0.558,-2.198 0.90122,-4.9217 3.32422,-5.8437 0.204,-2.219 1.71445,-4.5345 0.43945,-6.6465 0.536,-0.611 1.08386,-1.1893 1.63086,-1.7363 0.397,-1.201 0.79245,-2.3811 1.18945,-3.5391 -0.29,-0.375 -0.8682,-1.1152 -1.1582,-1.4902 h 2.39258 c 0.011,-0.525 0.0415,-1.5651 0.0625,-2.0801 0.611,-0.054 1.85651,-0.1609 2.47851,-0.2149 -0.515,-1.072 -1.04164,-2.1228 -1.55664,-3.1308 z m 34.87696,2.9805 c -0.954,2.047 -2.1116,3.9879 -3.1836,6.0039 -0.525,-1.094 -1.76869,-1.9618 -1.55469,-3.2168 1.437,-1.168 3.10829,-1.9731 4.73829,-2.7871 z m 859.45108,4.4609 c -0.011,3.356 -0.011,6.7233 0,10.1113 -1.083,-0.954 -2.1336,-1.8976 -3.1836,-2.8086 -0.021,-0.622 -0.055,-1.867 -0.076,-2.5 -1.222,-1.158 -2.4117,-2.3151 -3.5917,-3.4511 2.0799,-1.244 4.4825,-1.3196 6.8515,-1.3516 z m -26.332,0.084 c 2.005,0.204 4.6088,-0.6523 5.8847,1.4707 0.536,2.204 -0.5629,3.1345 -1.2539,7.6015 -1.608,4.432 -0.015,1.3956 -3.8593,8.6426 -0.064,0.568 -0.2043,1.7152 -0.2793,2.2832 -0.686,0.987 -1.3621,1.9932 -2.0371,3.0332 -0.075,-5.672 0.1393,-11.3314 -0.1387,-16.9824 -0.429,-1.104 -0.8267,-2.188 -1.1797,-3.25 0.943,-0.954 1.8983,-1.8878 2.8633,-2.7988 z m 119.4395,2.1133 c 2.712,4.817 -4.0553,14.2803 -5.4453,24.7363 h -0.8164 c -0.075,-6.197 0.1728,-12.3943 -0.1602,-18.5703 -1.019,-1.833 -1.8226,-4.8025 0.5254,-5.9395 1.941,-0.268 3.9135,-0.2055 5.8965,-0.2265 z m 20.5449,0.021 c 0,3.046 -4e-4,6.1015 -0.1074,9.1895 -3.41,-1.362 -4.0422,-5.3411 -6.3262,-7.8281 0.686,-0.289 2.0699,-0.878 2.7559,-1.168 1.212,-0.096 2.4337,-0.1614 3.6777,-0.1934 z m -434.4629,1.0411 c 3.964,3.766 0.9356,3.9377 1.3066,19.3847 h -2.916 c -3.54995,-13.533 -4.21025,-9.6768 -4.73825,-17.7988 0.718,-0.343 2.1443,-1.0281 2.8633,-1.3711 1.147,-0.107 2.30435,-0.1718 3.48435,-0.2148 z m 304.7597,2.8418 c -0.053,0.75 -0.1503,2.2509 -0.1933,3.0019 -0.686,1.932 -2.904,9.5319 -3.293,11.1719 -0.515,0.418 -1.5544,1.2453 -2.0684,1.6523 1.596,-6.255 1.4499,-6.4575 3.1739,-10.5625 0.075,-0.558 0.2258,-1.6722 0.3008,-2.2402 0.665,-1.029 1.362,-2.0474 2.08,-3.0234 z m 6.1114,2.5839 c 1.776,7.629 2.3602,6.1103 4.8671,16.4473 -0.557,-0.407 -1.6617,-1.2231 -2.2187,-1.6191 -0.927,-3.916 -3.9989,-12.9202 -4.8359,-14.7422 z m 106.5,0.01 1.2656,0.031 c -1.276,7.3179 -3.7797,13.3489 -4.7597,17.9609 -0.504,0.407 -1.4902,1.2317 -1.9942,1.6387 0.054,-0.74 0.1492,-2.2085 0.2031,-2.9375 2.749,-6.847 1.916,-4.4646 3.334,-10.8946 0.568,-1.051 1.1586,-2.0784 1.7696,-3.0644 0.053,-0.686 0.1386,-2.0594 0.1816,-2.7344 z m 7.1836,1.0625 c 1.11,7.933 2.865,11.3753 3.334,12.4473 0.054,1.19 0.1171,2.4122 0.2031,3.6562 h -1.0273 c -0.603,-4.522 -1.8479,-8.0142 -3.1309,-10.2832 -0.139,-1.072 -0.2682,-2.1006 -0.3652,-3.0976 -0.311,-0.654 -0.9332,-1.973 -1.2442,-2.627 0.557,-0.021 1.6725,-0.075 2.2305,-0.096 z m -434.02345,1.0918 c 0.032,0.708 0.1086,2.1348 0.1406,2.8418 0.675,0.986 1.3506,2.0042 2.0586,3.0332 -0.022,0.795 -0.045,2.3821 -0.055,3.1641 -0.654,-1.029 -1.2959,-2.0365 -1.9179,-3.0235 -0.493,-2.016 -1.041,-4.0309 -1.502,-6.0039 z m -470.65035,4.1816 v 1.8868 c -1.308,0.375 -2.61534,0.7943 -3.90234,1.2343 -1.211,0.064 -2.41252,0.1613 -3.60352,0.2793 v -1.9746 c 6.377,-1.022 2.22087,-0.6188 7.50586,-1.4258 z m -47.60547,0.6016 c 1.287,0.214 2.57238,0.5027 3.85938,0.8457 -0.407,0.462 -1.22091,1.405 -1.62891,1.877 -1.93,-0.021 -3.85053,-0.021 -5.76953,0 -0.407,-0.482 -1.22091,-1.4584 -1.62891,-1.9414 1.715,-0.279 3.44197,-0.5023 5.16797,-0.7813 z m 833.53317,0.5781 h 2.0371 c 0.075,0.654 0.2143,1.9508 0.2793,2.5938 2.736,6.841 1.5566,5.6135 4.1386,10.9785 -0.586,5.162 -0.5054,1.4839 -1.1894,7.0469 -0.525,-0.418 -1.5551,-1.2441 -2.0801,-1.6621 0,-2.777 0.011,-5.5326 0.096,-8.2676 -4.29,2.737 -3.1992,-1.9805 -3.2812,-10.6895 z m 113.8047,0.5039 c 1.244,0.675 2.0808,1.8322 2.8848,3.0332 1.214,9.011 4.535,10.0985 2.08,15.7735 -0.472,0 -1.4271,-0.01 -1.9101,-0.01 -0.011,-2.52 -0.011,-5.0189 0,-7.5058 -1.823,-0.021 -3.6126,-0.033 -5.3926,-0.012 0.021,-0.676 0.076,-2.0366 0.098,-2.7226 0.654,-1.062 1.3179,-2.0897 2.0039,-3.0977 0.043,-1.834 0.096,-3.689 0.2363,-5.459 z m -131.8536,1.0743 c 1.3295,0.6312 2.5737,1.7779 3.5977,2.6894 -2.241,-0.043 -4.6207,0.2901 -6.6367,-0.8789 -2.648,-0.193 -5.2864,-0.2044 -7.9024,-0.1934 l 0.055,-1.0175 c 2.241,-0.043 4.5024,-0.075 6.7754,-0.1934 1.367,-1.1525 2.7818,-1.0375 4.1113,-0.4062 z m -298.46085,8.0292 c 0.45,1.501 0.9433,3.0337 1.4043,4.5997 -1.877,-1.426 -3.7109,-2.8846 -5.5449,-4.3106 1.362,-0.129 2.7466,-0.2241 4.1406,-0.2891 z m 327.01755,3.9883 c 0.568,0.418 1.7161,1.2644 2.2851,1.6934 0.428,3.236 0.058,1.2363 1.4571,6.1113 -0.589,0.011 -1.746,0.045 -2.336,0.055 -0.826,-4.874 -0.9722,-3.1464 -1.4062,-7.8594 z m -288.2676,4.2657 c 0.021,0.826 0.053,2.4669 0.074,3.2929 -1.234,0.258 -2.4448,0.5691 -3.6348,0.9121 -3.1949,-0.868 -6.5296,-0.4182 -9.7246,-1.1582 -2.434,0.504 -4.9207,0.6329 -7.3867,0.5899 0.536,-0.708 1.1027,-1.3624 1.6817,-1.9844 5.007,0.128 10.0801,-0.4292 15.1191,-0.3652 1.276,-0.461 2.5631,-0.8901 3.8711,-1.2871 z" /><polygon
   points="486.78,2073.434 486.776,2073.429 486.776,2073.442 "
   id="polygon2481"
   transform="translate(-781.14645,-1830.3202)" /><path
   d="m -295.98945,240.8058 c 0.484,0.804 1.029,1.569 1.619,2.303 v -2.571 z"
   id="path2485" />
</svg>
